<svg xmlns="http://www.w3.org/2000/svg" xmlns:xlink="http://www.w3.org/1999/xlink" viewBox="0 0 600 600"><defs><style>.cls-1{isolation:isolate;}.cls-2{fill:#fff;}.cls-3{fill:#cccbcb;}.cls-4{fill:url(#linear-gradient);}.cls-5{fill:#f69159;}.cls-6,.cls-79{fill:#231f20;}.cls-7{fill:url(#linear-gradient-2);}.cls-8{fill:#213f98;}.cls-9{fill:url(#Degradado_sin_nombre_8);}.cls-10{fill:url(#Degradado_sin_nombre_8-2);}.cls-11{fill:url(#Degradado_sin_nombre_5);}.cls-12{fill:url(#Degradado_sin_nombre_5-2);}.cls-13{fill:url(#Degradado_sin_nombre_5-3);}.cls-14,.cls-29,.cls-30,.cls-35,.cls-74{fill:none;stroke-miterlimit:10;}.cls-14{stroke-width:0.94px;stroke:url(#radial-gradient);}.cls-15{fill:#2a2e7e;}.cls-16{fill:url(#Degradado_sin_nombre_8-3);}.cls-17{fill:url(#Degradado_sin_nombre_8-4);}.cls-18{fill:url(#Degradado_sin_nombre_8-5);}.cls-19{fill:url(#Degradado_sin_nombre_8-6);}.cls-20{fill:#cf7961;}.cls-21{fill:url(#linear-gradient-3);}.cls-22{fill:url(#Degradado_sin_nombre_20);}.cls-23{fill:url(#Degradado_sin_nombre_8-7);}.cls-24{fill:url(#Degradado_sin_nombre_8-8);}.cls-25{fill:url(#Degradado_sin_nombre_5-4);}.cls-26{fill:url(#Degradado_sin_nombre_5-5);}.cls-27{fill:url(#Degradado_sin_nombre_5-6);}.cls-28{fill:url(#radial-gradient-2);}.cls-29,.cls-30{stroke:#2a2e7e;}.cls-29{stroke-width:0.81px;}.cls-30,.cls-74{stroke-width:0.41px;}.cls-31{fill:url(#linear-gradient-4);}.cls-32{fill:url(#linear-gradient-5);}.cls-33{fill:url(#linear-gradient-6);}.cls-34{fill:url(#Degradado_sin_nombre_40);}.cls-35{stroke:#231f20;stroke-width:0.61px;}.cls-36{fill:url(#linear-gradient-7);}.cls-37{fill:url(#Degradado_sin_nombre_20-2);}.cls-38{fill:url(#Degradado_sin_nombre_8-9);}.cls-39{fill:url(#Degradado_sin_nombre_8-10);}.cls-40{fill:url(#Degradado_sin_nombre_5-7);}.cls-41{fill:url(#Degradado_sin_nombre_5-8);}.cls-42{fill:url(#Degradado_sin_nombre_5-9);}.cls-43{fill:url(#radial-gradient-3);}.cls-44{fill:url(#linear-gradient-8);}.cls-45{fill:url(#Degradado_sin_nombre_20-3);}.cls-46{fill:url(#Degradado_sin_nombre_8-11);}.cls-47{fill:url(#Degradado_sin_nombre_8-12);}.cls-48{fill:url(#Degradado_sin_nombre_5-10);}.cls-49{fill:url(#Degradado_sin_nombre_5-11);}.cls-50{fill:url(#Degradado_sin_nombre_5-12);}.cls-51{fill:url(#radial-gradient-4);}.cls-52{fill:url(#linear-gradient-9);}.cls-53{fill:url(#Degradado_sin_nombre_20-4);}.cls-54{fill:url(#Degradado_sin_nombre_8-13);}.cls-55{fill:url(#Degradado_sin_nombre_8-14);}.cls-56{fill:url(#Degradado_sin_nombre_5-13);}.cls-57{fill:url(#Degradado_sin_nombre_5-14);}.cls-58{fill:url(#Degradado_sin_nombre_5-15);}.cls-59{fill:url(#radial-gradient-5);}.cls-60{fill:url(#Degradado_sin_nombre_40-2);}.cls-61{fill:url(#Degradado_sin_nombre_40-3);}.cls-62{fill:url(#Degradado_sin_nombre_40-4);}.cls-63{fill:url(#Degradado_sin_nombre_40-5);}.cls-64{fill:url(#Degradado_sin_nombre_40-6);}.cls-65{fill:url(#Degradado_sin_nombre_40-7);}.cls-66{fill:url(#Degradado_sin_nombre_40-8);}.cls-67{fill:url(#Degradado_sin_nombre_40-9);}.cls-68{fill:url(#linear-gradient-10);}.cls-69,.cls-71{opacity:0.54;}.cls-69{fill:url(#linear-gradient-11);}.cls-70{fill:url(#linear-gradient-12);}.cls-71{fill:url(#linear-gradient-13);}.cls-72{fill:url(#linear-gradient-14);}.cls-73{mix-blend-mode:multiply;}.cls-74{stroke:#003953;}.cls-75{fill:url(#Degradado_sin_nombre_8-15);}.cls-76{fill:url(#linear-gradient-17);}.cls-77{fill:#c54f28;}.cls-78{fill:#201b51;}.cls-79{fill-rule:evenodd;}.cls-80{fill:#598ac7;}.cls-81{fill:url(#linear-gradient-18);}.cls-82{fill:url(#Degradado_sin_nombre_20-5);}.cls-83{fill:url(#Degradado_sin_nombre_8-16);}.cls-84{fill:url(#Degradado_sin_nombre_8-17);}.cls-85{fill:url(#Degradado_sin_nombre_5-16);}.cls-86{fill:url(#Degradado_sin_nombre_5-17);}.cls-87{fill:url(#Degradado_sin_nombre_5-18);}.cls-88{fill:url(#radial-gradient-6);}.cls-89{fill:#1f1a4e;}.cls-90{fill:#f79f81;}.cls-91{fill:#373175;}.cls-92{fill:#242259;}.cls-93{fill:#1e4380;}.cls-94{fill:#3258a7;}.cls-95{fill:#403982;}.cls-96{fill:url(#linear-gradient-19);}.cls-97{fill:url(#linear-gradient-20);}.cls-98{fill:url(#linear-gradient-21);}.cls-99{fill:url(#linear-gradient-22);}</style><linearGradient id="linear-gradient" x1="565.39" y1="420.19" x2="495.35" y2="282.33" gradientUnits="userSpaceOnUse"><stop offset="0" stop-color="#f79b5e"/><stop offset="0.29" stop-color="#faad60"/><stop offset="0.71" stop-color="#fec162"/><stop offset="1" stop-color="#ffc863"/></linearGradient><linearGradient id="linear-gradient-2" x1="285.83" y1="329.1" x2="379.21" y2="255.86" gradientUnits="userSpaceOnUse"><stop offset="0.05" stop-color="#fad05a"/><stop offset="0.33" stop-color="#fac85a"/><stop offset="0.77" stop-color="#f9b159"/><stop offset="1" stop-color="#f8a359"/></linearGradient><linearGradient id="Degradado_sin_nombre_8" x1="-238.49" y1="214.05" x2="-177.57" y2="214.05" gradientTransform="matrix(-1, 0, 0, 1, 132, 0)" gradientUnits="userSpaceOnUse"><stop offset="0" stop-color="#2272b9"/><stop offset="0.41" stop-color="#2851a5"/><stop offset="0.77" stop-color="#2c3a97"/><stop offset="1" stop-color="#2d3292"/></linearGradient><linearGradient id="Degradado_sin_nombre_8-2" x1="-238.49" y1="201.84" x2="-177.57" y2="201.84" xlink:href="#Degradado_sin_nombre_8"/><radialGradient id="Degradado_sin_nombre_5" cx="2729.02" cy="262.73" r="8.09" gradientTransform="matrix(0.91, -0.1, -0.1, -0.99, -2089.49, 867.93)" gradientUnits="userSpaceOnUse"><stop offset="0.29" stop-color="#fff" stop-opacity="0.6"/><stop offset="0.99" stop-color="#fff" stop-opacity="0"/></radialGradient><radialGradient id="Degradado_sin_nombre_5-2" cx="2537.06" cy="418.26" r="52.01" gradientTransform="matrix(1, 0, 0, -1, -2234.75, 751.65)" xlink:href="#Degradado_sin_nombre_5"/><radialGradient id="Degradado_sin_nombre_5-3" cx="2604.51" cy="410.71" r="71.34" gradientTransform="matrix(1, 0, 0, -1, -2234.75, 751.65)" xlink:href="#Degradado_sin_nombre_5"/><radialGradient id="radial-gradient" cx="-208.03" cy="147.25" r="28.01" gradientTransform="matrix(-1, 0, 0, 1.25, 132, 78.41)" gradientUnits="userSpaceOnUse"><stop offset="0.02" stop-color="#fff"/><stop offset="0.08" stop-color="#dfcabe"/><stop offset="0.13" stop-color="#c59c88"/><stop offset="0.17" stop-color="#b48166"/><stop offset="0.19" stop-color="#ae7659"/><stop offset="0.24" stop-color="#9c6a50"/><stop offset="0.37" stop-color="#704e3a"/><stop offset="0.49" stop-color="#4b3629"/><stop offset="0.62" stop-color="#2f241b"/><stop offset="0.75" stop-color="#1b1711"/><stop offset="0.87" stop-color="#0f100b"/><stop offset="1" stop-color="#0b0d09"/></radialGradient><linearGradient id="Degradado_sin_nombre_8-3" x1="401.41" y1="296.15" x2="411.9" y2="296.15" gradientTransform="matrix(1, 0, 0, 1, 0, 0)" xlink:href="#Degradado_sin_nombre_8"/><linearGradient id="Degradado_sin_nombre_8-4" x1="268.16" y1="319.83" x2="289.98" y2="319.83" gradientTransform="matrix(1, 0, 0, 1, 0, 0)" xlink:href="#Degradado_sin_nombre_8"/><linearGradient id="Degradado_sin_nombre_8-5" x1="385.35" y1="280.92" x2="405.29" y2="280.92" gradientTransform="matrix(1, 0, 0, 1, 0, 0)" xlink:href="#Degradado_sin_nombre_8"/><linearGradient id="Degradado_sin_nombre_8-6" x1="265.75" y1="348.64" x2="303.59" y2="348.64" gradientTransform="matrix(1, 0, 0, 1, 0, 0)" xlink:href="#Degradado_sin_nombre_8"/><linearGradient id="linear-gradient-3" x1="359.98" y1="435.36" x2="355.26" y2="502.61" xlink:href="#linear-gradient-2"/><linearGradient id="Degradado_sin_nombre_20" x1="2247.71" y1="1747.66" x2="2248.15" y2="1768.82" gradientTransform="matrix(1, 0, 0, -1, -1925.89, 2236.11)" gradientUnits="userSpaceOnUse"><stop offset="0" stop-color="#4280c1"/><stop offset="1" stop-color="#2c469c"/></linearGradient><linearGradient id="Degradado_sin_nombre_8-7" x1="104.86" y1="-1008.33" x2="132.76" y2="-1008.33" gradientTransform="matrix(1, 0, 0, -1, 206.83, -529.81)" xlink:href="#Degradado_sin_nombre_8"/><linearGradient id="Degradado_sin_nombre_8-8" x1="104.86" y1="-1002.74" x2="132.76" y2="-1002.74" gradientTransform="matrix(1, 0, 0, -1, 201.44, -522.76)" xlink:href="#Degradado_sin_nombre_8"/><radialGradient id="Degradado_sin_nombre_5-4" cx="-125.99" cy="-945.34" r="3.71" gradientTransform="matrix(-0.33, -0.85, -0.93, 0.36, -542.77, 685.14)" xlink:href="#Degradado_sin_nombre_5"/><radialGradient id="Degradado_sin_nombre_5-5" cx="101.53" cy="-1063" r="23.83" gradientTransform="matrix(-0.26, -0.97, -0.97, 0.26, -617.12, 855.4)" xlink:href="#Degradado_sin_nombre_5"/><radialGradient id="Degradado_sin_nombre_5-6" cx="132.43" cy="-1066.46" r="32.68" gradientTransform="matrix(-0.26, -0.97, -0.97, 0.26, -617.12, 855.4)" xlink:href="#Degradado_sin_nombre_5"/><radialGradient id="radial-gradient-2" cx="2247.96" cy="1368.03" r="13.11" gradientTransform="matrix(0.26, 0.97, 1.2, -0.32, -1882.6, -1254.88)" xlink:href="#radial-gradient"/><linearGradient id="linear-gradient-4" x1="-170.29" y1="491.86" x2="-162.71" y2="464.9" gradientTransform="matrix(-1, 0, 0, 1, 132, 0)" gradientUnits="userSpaceOnUse"><stop offset="0" stop-color="#f8a034"/><stop offset="1" stop-color="#ffc546"/></linearGradient><linearGradient id="linear-gradient-5" x1="-171.61" y1="492.77" x2="-180.96" y2="473.38" gradientTransform="matrix(-1, 0, 0, 1, 132, 0)" gradientUnits="userSpaceOnUse"><stop offset="0" stop-color="#fcb72c"/><stop offset="1" stop-color="#ffcf44"/></linearGradient><linearGradient id="linear-gradient-6" x1="-159.94" y1="494.04" x2="-156.6" y2="481.56" xlink:href="#linear-gradient-5"/><linearGradient id="Degradado_sin_nombre_40" x1="2203.56" y1="375.96" x2="2217.63" y2="327.52" gradientTransform="translate(-1999.3)" gradientUnits="userSpaceOnUse"><stop offset="0.32" stop-color="#4b6ab1"/><stop offset="1" stop-color="#5f83c2"/></linearGradient><linearGradient id="linear-gradient-7" x1="372.33" y1="-430.67" x2="390.94" y2="-430.67" gradientTransform="matrix(-0.22, -0.98, -0.98, 0.22, -72.33, 855.94)" xlink:href="#linear-gradient-5"/><linearGradient id="Degradado_sin_nombre_20-2" x1="1985.87" y1="1164.62" x2="1986.03" y2="1172.42" gradientTransform="matrix(1, 0, 0, -1, -1734.37, 1560.92)" xlink:href="#Degradado_sin_nombre_20"/><linearGradient id="Degradado_sin_nombre_8-9" x1="376.55" y1="-417.87" x2="386.93" y2="-417.87" gradientTransform="matrix(-0.22, -0.98, -0.98, 0.22, -72.33, 855.94)" xlink:href="#Degradado_sin_nombre_8"/><linearGradient id="Degradado_sin_nombre_8-10" x1="376.55" y1="-415.79" x2="386.93" y2="-415.79" gradientTransform="matrix(-0.22, -0.98, -0.98, 0.22, -72.33, 855.94)" xlink:href="#Degradado_sin_nombre_8"/><radialGradient id="Degradado_sin_nombre_5-7" cx="223.65" cy="-347.58" r="1.38" gradientTransform="matrix(-0.29, -0.87, -0.95, 0.32, 9.23, 688.27)" xlink:href="#Degradado_sin_nombre_5"/><radialGradient id="Degradado_sin_nombre_5-8" cx="375.31" cy="-438.2" r="8.86" gradientTransform="matrix(-0.22, -0.98, -0.98, 0.22, -72.33, 855.94)" xlink:href="#Degradado_sin_nombre_5"/><radialGradient id="Degradado_sin_nombre_5-9" cx="386.8" cy="-439.49" r="12.16" gradientTransform="matrix(-0.22, -0.98, -0.98, 0.22, -72.33, 855.94)" xlink:href="#Degradado_sin_nombre_5"/><radialGradient id="radial-gradient-3" cx="1985.45" cy="881.94" r="4.9" gradientTransform="matrix(0.22, 0.98, 1.22, -0.27, -1241.39, -1309.43)" xlink:href="#radial-gradient"/><linearGradient id="linear-gradient-8" x1="-136.52" y1="1145.89" x2="-117.91" y2="1145.89" gradientTransform="matrix(-0.9, 0.45, 0.45, 0.9, -405.91, -668)" xlink:href="#linear-gradient-5"/><linearGradient id="Degradado_sin_nombre_20-3" x1="2495.13" y1="-412.16" x2="2495.29" y2="-404.35" gradientTransform="matrix(1, 0, 0, -1, -2270.59, -94.67)" xlink:href="#Degradado_sin_nombre_20"/><linearGradient id="Degradado_sin_nombre_8-11" x1="-132.3" y1="1158.69" x2="-121.92" y2="1158.69" gradientTransform="matrix(-0.9, 0.45, 0.45, 0.9, -405.91, -668)" xlink:href="#Degradado_sin_nombre_8"/><linearGradient id="Degradado_sin_nombre_8-12" x1="-132.3" y1="1160.77" x2="-121.92" y2="1160.77" gradientTransform="matrix(-0.9, 0.45, 0.45, 0.9, -405.91, -668)" xlink:href="#Degradado_sin_nombre_8"/><radialGradient id="Degradado_sin_nombre_5-10" cx="-148.92" cy="1273.69" r="1.38" gradientTransform="matrix(-0.77, 0.49, 0.54, 0.84, -588.31, -706.92)" xlink:href="#Degradado_sin_nombre_5"/><radialGradient id="Degradado_sin_nombre_5-11" cx="-133.54" cy="1138.35" r="8.86" gradientTransform="matrix(-0.9, 0.45, 0.45, 0.9, -405.91, -668)" xlink:href="#Degradado_sin_nombre_5"/><radialGradient id="Degradado_sin_nombre_5-12" cx="-122.04" cy="1137.07" r="12.16" gradientTransform="matrix(-0.9, 0.45, 0.45, 0.9, -405.91, -668)" xlink:href="#Degradado_sin_nombre_5"/><radialGradient id="radial-gradient-4" cx="2494.32" cy="-384.38" r="4.9" gradientTransform="matrix(0.9, -0.45, -0.56, -1.12, -2226.03, 987.75)" xlink:href="#radial-gradient"/><linearGradient id="linear-gradient-9" x1="245.28" y1="1537.31" x2="263.55" y2="1537.31" gradientTransform="matrix(-0.57, 0.82, 0.82, 0.57, -953.14, -734.84)" xlink:href="#linear-gradient-5"/><linearGradient id="Degradado_sin_nombre_20-4" x1="2112.62" y1="-802.23" x2="2112.78" y2="-794.56" gradientTransform="matrix(1, 0, 0, -1, -1931.15, -445.99)" xlink:href="#Degradado_sin_nombre_20"/><linearGradient id="Degradado_sin_nombre_8-13" x1="249.42" y1="1549.87" x2="259.61" y2="1549.87" gradientTransform="matrix(-0.57, 0.82, 0.82, 0.57, -953.14, -734.84)" xlink:href="#Degradado_sin_nombre_8"/><linearGradient id="Degradado_sin_nombre_8-14" x1="249.42" y1="1551.92" x2="259.61" y2="1551.92" gradientTransform="matrix(-0.57, 0.82, 0.82, 0.57, -953.14, -734.84)" xlink:href="#Degradado_sin_nombre_8"/><radialGradient id="Degradado_sin_nombre_5-13" cx="311.09" cy="1622.47" r="1.35" gradientTransform="matrix(-0.44, 0.8, 0.88, 0.48, -1130.94, -679.92)" xlink:href="#Degradado_sin_nombre_5"/><radialGradient id="Degradado_sin_nombre_5-14" cx="248.2" cy="1529.9" r="8.7" gradientTransform="matrix(-0.57, 0.82, 0.82, 0.57, -953.14, -734.84)" xlink:href="#Degradado_sin_nombre_5"/><radialGradient id="Degradado_sin_nombre_5-15" cx="259.49" cy="1528.64" r="11.94" gradientTransform="matrix(-0.57, 0.82, 0.82, 0.57, -953.14, -734.84)" xlink:href="#Degradado_sin_nombre_5"/><radialGradient id="radial-gradient-5" cx="2112.89" cy="-697.54" r="4.82" gradientTransform="matrix(0.57, -0.82, -1.03, -0.71, -1738.53, 1597.66)" xlink:href="#radial-gradient"/><linearGradient id="Degradado_sin_nombre_40-2" x1="2213.93" y1="315.06" x2="2231.66" y2="315.06" xlink:href="#Degradado_sin_nombre_40"/><linearGradient id="Degradado_sin_nombre_40-3" x1="1103.42" y1="-756.73" x2="1121.15" y2="-756.73" gradientTransform="translate(-346.64 -812.94) rotate(97.83)" xlink:href="#Degradado_sin_nombre_40"/><linearGradient id="Degradado_sin_nombre_40-4" x1="2000.36" y1="997.1" x2="2018.09" y2="997.1" gradientTransform="translate(-2050.58 570.09) rotate(-31.9)" xlink:href="#Degradado_sin_nombre_40"/><linearGradient id="Degradado_sin_nombre_40-5" x1="2195.3" y1="428.47" x2="2207.35" y2="386.97" xlink:href="#Degradado_sin_nombre_40"/><linearGradient id="Degradado_sin_nombre_40-6" x1="214.91" y1="392.54" x2="214.92" y2="392.52" gradientTransform="matrix(1, 0, 0, 1, 0, 0)" xlink:href="#Degradado_sin_nombre_40"/><linearGradient id="Degradado_sin_nombre_40-7" x1="2197.89" y1="404.17" x2="2217.64" y2="336.15" xlink:href="#Degradado_sin_nombre_40"/><linearGradient id="Degradado_sin_nombre_40-8" x1="2227.24" y1="408.53" x2="2248.16" y2="336.45" xlink:href="#Degradado_sin_nombre_40"/><linearGradient id="Degradado_sin_nombre_40-9" x1="2237.02" y1="432.92" x2="2246.13" y2="401.53" xlink:href="#Degradado_sin_nombre_40"/><linearGradient id="linear-gradient-10" x1="265.86" y1="476.69" x2="189.33" y2="461.55" gradientUnits="userSpaceOnUse"><stop offset="0" stop-color="#242259"/><stop offset="1" stop-color="#635b75"/></linearGradient><linearGradient id="linear-gradient-11" x1="186.21" y1="452.06" x2="258.64" y2="452.06" gradientUnits="userSpaceOnUse"><stop offset="0" stop-color="#3159a7"/><stop offset="1" stop-color="#557ebe"/></linearGradient><linearGradient id="linear-gradient-12" x1="179.63" y1="446.75" x2="263.01" y2="446.75" xlink:href="#linear-gradient-10"/><linearGradient id="linear-gradient-13" x1="193.88" y1="470.3" x2="258.04" y2="470.3" xlink:href="#linear-gradient-11"/><linearGradient id="linear-gradient-14" x1="395.32" y1="436.41" x2="454.96" y2="436.41" gradientUnits="userSpaceOnUse"><stop offset="0" stop-color="#f2f2f2"/><stop offset="1" stop-color="#e8e7f3"/></linearGradient><linearGradient id="Degradado_sin_nombre_8-15" x1="464.99" y1="375.07" x2="487.23" y2="456.24" gradientTransform="matrix(1, 0, 0, 1, 0, 0)" xlink:href="#Degradado_sin_nombre_8"/><linearGradient id="linear-gradient-17" x1="476.82" y1="468.87" x2="406.97" y2="388.09" xlink:href="#linear-gradient-11"/><linearGradient id="linear-gradient-18" x1="437.15" y1="439.7" x2="469.7" y2="486.53" xlink:href="#linear-gradient-2"/><linearGradient id="Degradado_sin_nombre_20-5" x1="1218.31" y1="-1516.5" x2="1218.65" y2="-1499.56" gradientTransform="translate(-734.01 1982.54)" xlink:href="#Degradado_sin_nombre_20"/><linearGradient id="Degradado_sin_nombre_8-16" x1="1136.58" y1="2257.54" x2="1158.94" y2="2257.54" gradientTransform="translate(-1996.4 995.25) rotate(-74.97)" xlink:href="#Degradado_sin_nombre_8"/><linearGradient id="Degradado_sin_nombre_8-17" x1="1136.58" y1="2262.02" x2="1158.94" y2="2262.02" gradientTransform="translate(-1996.4 995.25) rotate(-74.97)" xlink:href="#Degradado_sin_nombre_8"/><radialGradient id="Degradado_sin_nombre_5-16" cx="1367.61" cy="2206.83" r="2.97" gradientTransform="matrix(0.33, -0.85, 0.93, 0.36, -2071.15, 825.22)" xlink:href="#Degradado_sin_nombre_5"/><radialGradient id="Degradado_sin_nombre_5-17" cx="1133.91" cy="2213.73" r="19.09" gradientTransform="translate(-1996.4 995.25) rotate(-74.97)" xlink:href="#Degradado_sin_nombre_5"/><radialGradient id="Degradado_sin_nombre_5-18" cx="1158.67" cy="2210.96" r="26.19" gradientTransform="translate(-1996.4 995.25) rotate(-74.97)" xlink:href="#Degradado_sin_nombre_5"/><radialGradient id="radial-gradient-6" cx="1218.27" cy="-1258.3" r="10.59" gradientTransform="matrix(-0.26, 0.97, -1.2, -0.32, -732.8, -1115.28)" xlink:href="#radial-gradient"/><linearGradient id="linear-gradient-19" x1="164.71" y1="477.26" x2="164.71" y2="421.44" gradientTransform="matrix(1, 0, 0, 1, 0, 0)" xlink:href="#linear-gradient-4"/><linearGradient id="linear-gradient-20" x1="172.5" y1="477.26" x2="172.5" y2="421.44" gradientTransform="matrix(1, 0, 0, 1, 0, 0)" xlink:href="#linear-gradient-4"/><linearGradient id="linear-gradient-21" x1="178.81" y1="434.22" x2="171.39" y2="460.11" gradientUnits="userSpaceOnUse"><stop offset="0" stop-color="#fdf4b6"/><stop offset="1" stop-color="#d07e2b"/></linearGradient><linearGradient id="linear-gradient-22" x1="186.44" y1="436.41" x2="179.01" y2="462.3" xlink:href="#linear-gradient-21"/></defs><g class="cls-1"><g id="Layer_2" data-name="Layer 2"><g id="Layer_1-2" data-name="Layer 1"><rect class="cls-2" width="600" height="600"/><g id="shadow"><path id="shadow-2" data-name="shadow" class="cls-3" d="M48,491.94S4.84,495.29,21.74,498s472.56,1.18,371.36-11.46c-63.74-8-192.22-6.32-256.75-3.09S48,491.94,48,491.94Z"/><path class="cls-3" d="M473,471.83s79.21,15.78,34.09,15.21-108.39,0-63.18-8.73S473,471.83,473,471.83Z"/></g><g id="tree"><path class="cls-4" d="M509.66,398.08c22.87-1.47,49.25-27.31,42.3-43.3s-8.55-26.58-1.51-37.38c6.38-9.81-17.46-51.33-8.41-67.24-3.38-3.2-8.06-5-12.38-3.52-5.47,1.87-8.2,7.91-9.92,13.43a128.57,128.57,0,0,0-4.32,18.67c-.92,6-1.57,12.5-5.46,17.18-4.28,5.14-11.5,6.91-16.25,11.61a17.74,17.74,0,0,0-4.94,15.29c.82,4.85,3.62,9.09,5.61,13.58s3.14,9.91.7,14.18c-2.16,3.75-6.51,5.6-9.53,8.71-3.85,4-5.29,9.88-4.6,15.37s3.31,10.58,6.6,15a51.79,51.79,0,0,0,5.72,6.48A46.6,46.6,0,0,0,509.66,398.08Z"/><path class="cls-5" d="M532.22,421.28c4.87-10.54,22.45-17.86,29.25-23.67,7.17-6.14,13.74-14.37,15.11-24,1.53-10.76-4.35-16.51-9.3-25-8.19-14,8.38-27.72,2.77-41.78-2.9-7.24-11.41-10.48-16-16.79-3.67-5-4.48-11.56-5-17.78s-.89-12.69-3.91-18.15a16.87,16.87,0,0,0-3.12-4c-9,15.91,14.79,57.43,8.41,67.24-7,10.8-5.45,21.39,1.51,37.38s-19.43,41.83-42.3,43.3a46.6,46.6,0,0,1-16.39-1.92,52.26,52.26,0,0,0,11,8C514,409.48,526,412.14,532.22,421.28Z"/><polygon class="cls-6" points="555.45 360.95 554.99 360.53 532.53 385 532.53 325.61 547.18 307.05 546.7 306.66 532.53 324.61 532.53 264.8 531.91 264.8 531.91 296.17 521.94 281.66 521.42 282.01 531.91 297.26 531.91 345.24 505.43 318.53 504.99 318.96 531.91 346.12 531.91 403.45 497.85 369.51 497.41 369.95 531.91 404.33 531.91 467.02 532.53 467.02 532.53 385.92 555.45 360.95"/></g><g id="bulb"><path class="cls-7" d="M340,355c-5.54.33-55.2-3.11-55.2-53.74,0-32.75,24-33.06,28.48-78h53.44c4.48,44.9,27.26,45.21,27.26,78C394,351.89,345.57,355.33,340,355Z"/><path class="cls-8" d="M313.31,188.57H366.5a0,0,0,0,1,0,0v30.55a4.18,4.18,0,0,1-4.18,4.18H317.49a4.18,4.18,0,0,1-4.18-4.18V188.57a0,0,0,0,1,0,0Z" transform="translate(679.81 411.87) rotate(-180)"/><rect class="cls-9" x="309.57" y="209.32" width="60.92" height="9.46" rx="1.94"/><rect class="cls-10" x="309.57" y="197.11" width="60.92" height="9.46" rx="1.94"/><path class="cls-8" d="M327.64,178.81h24.77a4,4,0,0,1,4,4v5.76a0,0,0,0,1,0,0H323.64a0,0,0,0,1,0,0v-5.76a4,4,0,0,1,4-4Z"/><path class="cls-11" d="M367.27,340.71a3.9,3.9,0,1,0-3.42,4.64A4.09,4.09,0,0,0,367.27,340.71Z"/><path class="cls-12" d="M329.14,313.64c-1-9.19-8.56-15.91-16.95-15s-14.41,9.05-13.44,18.23,8.55,15.91,16.95,15S330.11,322.82,329.14,313.64Z"/><path class="cls-13" d="M368.66,331.81c14.34-11.54,12.7-30.79,11-47.24-.48-4.66,6.8-4.63,7.28,0,1.9,18.34,2.74,39.62-13.13,52.4-3.62,2.91-8.81-2.22-5.15-5.16Z"/><path class="cls-14" d="M347.94,223.3v57.36s-.84,17.45,11.28,18,1.15-20.4-15.81-20.4-29,3.28-27.58,15.61,14,4.2,14-17.84V223.3"/><rect class="cls-15" x="343.91" y="141.9" width="1.12" height="31.82"/><rect class="cls-15" x="328.69" y="113.58" width="1.12" height="16.86"/><rect class="cls-15" x="328.69" y="136.76" width="1.12" height="27.4"/><rect class="cls-15" x="358.96" y="136.59" width="1.12" height="27.4"/><rect class="cls-15" x="358.96" y="111.13" width="1.12" height="13.7"/><rect class="cls-15" x="312.75" y="150.29" width="1.12" height="24.6"/><rect class="cls-15" x="369.93" y="169.87" width="1.12" height="13.81"/><path class="cls-16" d="M405.93,328.41l-1-.45a70.91,70.91,0,0,0-3.49-63.5l1-.56a72,72,0,0,1,3.55,64.51Z"/><path class="cls-17" d="M289.19,350.48a71.4,71.4,0,0,1-21-50.8,73.4,73.4,0,0,1,.76-10.49l1.11.16a71.08,71.08,0,0,0-.75,10.33,70.29,70.29,0,0,0,20.7,50Z"/><path class="cls-18" d="M404.72,307.92l-1.11-.15a62.52,62.52,0,0,0-18.26-53l.78-.8a63.68,63.68,0,0,1,18.59,54Z"/><path class="cls-19" d="M303.16,370.33a63.14,63.14,0,0,1-34.45-34.28,64.8,64.8,0,0,1-3-8.82l1.09-.27a62.89,62.89,0,0,0,2.9,8.66,62,62,0,0,0,33.85,33.67Z"/></g><path class="cls-20" d="M157.21,336.91s4.65.72,5.79.49,4.62-1.1,6.12-.68,2.73-.31,2.76.49-2.6,1.86-4.28,1.87c0,0,7.55,1.62,8.43,1.74s2.24,2.86,1.78,3.88-6.88,4-8.26,4.07S155.39,344,155.39,344Z"/><g id="bulb-2" data-name="bulb"><path class="cls-21" d="M388,461.73c.8,2.41,5.2,24.78-17.2,30.81-14.48,3.91-17.48-6.68-37.87-3.31l-3.12-11.58-.13-.47-3.12-11.59c19.33-7.33,16.75-17.44,31.24-21.34C380.17,438.22,387.46,459.24,388,461.73Z"/><path class="cls-22" d="M309.88,471.58h24.37a0,0,0,0,1,0,0v11.73a4.18,4.18,0,0,1-4.18,4.18h-16a4.18,4.18,0,0,1-4.18-4.18V471.58a0,0,0,0,1,0,0Z" transform="translate(701.36 43.87) rotate(74.93)"/><path class="cls-8" d="M309.88,471.58h24.37a0,0,0,0,1,0,0v11.73a4.18,4.18,0,0,1-4.18,4.18h-16a4.18,4.18,0,0,1-4.18-4.18V471.58a0,0,0,0,1,0,0Z" transform="translate(701.36 43.87) rotate(74.93)"/><rect class="cls-23" x="311.68" y="476.35" width="27.9" height="4.33" rx="1.48" transform="translate(-51.75 917.37) rotate(-105.07)"/><rect class="cls-24" x="306.28" y="477.8" width="27.9" height="4.33" rx="1.48" transform="translate(-59.96 913.99) rotate(-105.07)"/><path class="cls-8" d="M307.76,479.89h8.89a3.06,3.06,0,0,1,3.06,3.06v1.41a0,0,0,0,1,0,0h-15a0,0,0,0,1,0,0V483a3.06,3.06,0,0,1,3.06-3.06Z" transform="translate(-72.17 908.96) rotate(-105.07)"/><path class="cls-25" d="M378.42,451.38a1.79,1.79,0,1,0,2.45,1A1.87,1.87,0,0,0,378.42,451.38Z"/><path class="cls-26" d="M371,471.47c-4,1.52-6,5.68-4.63,9.29s5.72,5.29,9.67,3.77,6-5.68,4.62-9.29S374.93,470,371,471.47Z"/><path class="cls-27" d="M374.31,451.82c-6.81-5-15.13-1.94-22.2.77-2,.76-2.86-2.46-.87-3.23,7.89-3,17.2-5.93,24.74-.43,1.72,1.26.07,4.16-1.67,2.89Z"/><path class="cls-28" d="M331.11,482.55l-.34-1.25L354.12,475c.23-.07.47-.13.71-.18a38,38,0,0,1-1.8-5.31,8.76,8.76,0,0,1-.27-1.41L329,474.53l-.34-1.24,24.08-6.48A11.46,11.46,0,0,1,356,459c1.27-1.23,2.62-1.75,3.7-1.43a2.72,2.72,0,0,1,1.77,2.29c1,4.79-4.21,7.26-7.13,7.9l-.28.07a9,9,0,0,0,.26,1.42,36.91,36.91,0,0,0,1.84,5.37c5.63-1,9.69.31,10.39,2.4.17.49.47,2.18-2.42,3.33a5.8,5.8,0,0,1-4.91,0,9.1,9.1,0,0,1-3.78-4.26l-.94.23Zm25.6-6.78a7.64,7.64,0,0,0,3,3.37,4.53,4.53,0,0,0,3.86,0c1.25-.5,1.88-1.15,1.68-1.73C364.89,476.22,361.77,474.91,356.71,475.77ZM359,458.71a3.47,3.47,0,0,0-2.13,1.17,10.11,10.11,0,0,0-2.87,6.58h0c.32-.07,7.2-1.64,6.17-6.38-.11-.52-.35-1.17-.88-1.33A1.36,1.36,0,0,0,359,458.71Z"/></g><g id="etc"><path class="cls-29" d="M365.64,362.67a4.85,4.85,0,1,0,4.85-4.85A4.85,4.85,0,0,0,365.64,362.67Z"/><path class="cls-29" d="M281.45,261a3.39,3.39,0,1,0,3.39-3.39A3.38,3.38,0,0,0,281.45,261Z"/><line class="cls-30" x1="298.64" y1="273.2" x2="298.64" y2="278.27"/><line class="cls-30" x1="300.92" y1="275.73" x2="296.36" y2="275.73"/><line class="cls-30" x1="407.75" y1="253.01" x2="407.75" y2="258.08"/><line class="cls-30" x1="410.03" y1="255.55" x2="405.47" y2="255.55"/><line class="cls-30" x1="318.24" y1="436.41" x2="318.24" y2="444.51"/><line class="cls-30" x1="321.88" y1="440.46" x2="314.59" y2="440.46"/></g><g id="plant_3" data-name="plant 3"><path class="cls-31" d="M306.27,485.79s-.77-27.15-10.13-29.16-10.69,16.94,0,35.65Z"/><path class="cls-6" d="M301.43,489.05a.17.17,0,0,1-.16-.12c-4.46-18.32-6.38-25.06-6.4-25.12a.17.17,0,0,1,.11-.2.16.16,0,0,1,.2.11c0,.06,1.94,6.81,6.4,25.14a.16.16,0,0,1-.11.19Z"/><path class="cls-32" d="M309.51,492.28s14.26-13.81,8.91-20.5-18.72,4.9-22.28,20.5Z"/><path class="cls-6" d="M303.94,490.43h-.06a.16.16,0,0,1-.09-.21c3.54-8.18,10.44-14.69,10.51-14.76a.17.17,0,0,1,.22,0,.17.17,0,0,1,0,.23c-.07.06-6.93,6.53-10.44,14.65A.14.14,0,0,1,303.94,490.43Z"/><path class="cls-33" d="M297.44,492.28s-3.64-15.71-11-14.37,0,14.26,0,14.26Z"/><path class="cls-6" d="M290.24,490.32a.16.16,0,0,1-.16-.12l-2.45-9.13a.16.16,0,0,1,.11-.19.15.15,0,0,1,.2.11l2.45,9.13a.17.17,0,0,1-.11.2Z"/></g><g id="plant_1" data-name="plant 1"><path class="cls-34" d="M227.81,372.46c-1-4.25-4.31-7.48-7.2-10.75-10.63-12-16.76-27.27-22.69-42.18A87.37,87.37,0,0,1,228.42,371Z"/><path class="cls-6" d="M228.36,371.44c-.42-3.42-2.19-6.33-3.91-9.25-2.16-3.66-4.49-7.21-6.83-10.75-4.66-7.07-9.32-14.16-12.7-21.95-.11-.25-.47,0-.36.21,3.12,7.19,7.32,13.79,11.62,20.32,2.15,3.27,4.33,6.53,6.39,9.87,2.17,3.53,4.86,7.35,5.37,11.55,0,.26.46.27.42,0Z"/><path class="cls-35" d="M185.28,356.76s36.39,15.33,36.13,96"/><path class="cls-35" d="M222.7,467.66s-10-70.49,24.93-73.37"/><path class="cls-36" d="M276.37,387.55c.26.91,1.52,9.3-6.9,11.17-5.45,1.21-6.39-2.78-14-1.86l-1-4.36,0-.18-1-4.35c7.3-2.4,6.51-6.21,12-7.41C273.86,378.69,276.22,386.62,276.37,387.55Z"/><path class="cls-37" d="M247,390.12h9.06a0,0,0,0,1,0,0V392a4,4,0,0,1-4,4h-1a4,4,0,0,1-4-4v-1.87A0,0,0,0,1,247,390.12Z" transform="translate(580.82 62.32) rotate(77.49)"/><path class="cls-8" d="M247,390.12h9.06a0,0,0,0,1,0,0v4.39a1.52,1.52,0,0,1-1.52,1.52h-6a1.52,1.52,0,0,1-1.52-1.52v-4.4a0,0,0,0,1,0,0Z" transform="translate(580.84 62.34) rotate(77.49)"/><path class="cls-38" d="M251.19,388.65l1.9,8.56a.8.8,0,0,0,1,.61h0a.82.82,0,0,0,.61-1l-1.9-8.56a.8.8,0,0,0-1-.61h0A.79.79,0,0,0,251.19,388.65Z"/><path class="cls-39" d="M249.16,389.1l1.9,8.56a.8.8,0,0,0,1,.61h0a.82.82,0,0,0,.61-1l-1.9-8.56a.81.81,0,0,0-1-.61h0A.79.79,0,0,0,249.16,389.1Z"/><path class="cls-8" d="M246.82,393l.49,2.21a1.66,1.66,0,0,0,2,1.26h0L248.08,391h0A1.65,1.65,0,0,0,246.82,393Z"/><path class="cls-40" d="M273,383.55a.66.66,0,1,0,.42,1.25.66.66,0,1,0-.42-1.25Z"/><path class="cls-41" d="M269.89,390.89a2.62,2.62,0,1,0,3.53,1.56A2.73,2.73,0,0,0,269.89,390.89Z"/><path class="cls-42" d="M271.45,383.65c-2.44-2-5.59-1-8.26-.09-.76.25-1-1-.27-1.21,3-1,6.49-1.92,9.2.25.62.49,0,1.55-.67,1Z"/><path class="cls-43" d="M254.9,394.38l-.12-.54,8.78-1.95.22-.05a14.26,14.26,0,0,1-.57-2,4.13,4.13,0,0,1-.07-.49l-8.91,2-.12-.55,9-2a4.29,4.29,0,0,1,1.36-2.86,1.52,1.52,0,0,1,1.44-.48,1,1,0,0,1,.64.91c.31,1.83-1.7,2.67-2.81,2.86l-.07,0a2.89,2.89,0,0,0,.07.49,13.88,13.88,0,0,0,.58,2c2.12-.28,3.6.3,3.83,1.1.06.19.15.85-1,1.25a2.18,2.18,0,0,1-1.86-.1,3.36,3.36,0,0,1-1.33-1.63l-.32.06Zm9.67-2.1a2.82,2.82,0,0,0,1,1.24,1.65,1.65,0,0,0,1.4.05c.34-.12.69-.34.63-.57C267.51,392.58,266.42,392.07,264.57,392.28Zm1.05-6.29a1.31,1.31,0,0,0-.76.39,3.71,3.71,0,0,0-1.16,2.32c.38-.08,2.6-.59,2.32-2.21,0-.19-.11-.42-.28-.48Z"/><path class="cls-44" d="M213.28,291.25c.82-.47,8.65-3.71,12.5,4,2.48,5-1.16,6.87,1.57,14.06l-4,2-.16.08-4,2c-4.09-6.51-7.58-4.83-10.07-9.82C205.28,295.82,212.41,291.62,213.28,291.25Z"/><path class="cls-45" d="M220.08,311h9.06a0,0,0,0,1,0,0v1.87a4,4,0,0,1-4,4h-1a4,4,0,0,1-4-4V311A0,0,0,0,1,220.08,311Z" transform="translate(-116.33 132.88) rotate(-26.44)"/><path class="cls-8" d="M220.08,311h9.06a0,0,0,0,1,0,0v5.14a.78.78,0,0,1-.78.78h-7.51a.78.78,0,0,1-.78-.78V311A0,0,0,0,1,220.08,311Z" transform="translate(-116.33 132.89) rotate(-26.45)"/><path class="cls-46" d="M220.41,315.43l7.85-3.91a.81.81,0,0,0,.36-1.08h0a.81.81,0,0,0-1.08-.36L219.69,314a.8.8,0,0,0-.36,1.08h0A.8.8,0,0,0,220.41,315.43Z"/><path class="cls-47" d="M221.33,317.29l7.85-3.9a.82.82,0,0,0,.37-1.08h0a.83.83,0,0,0-1.09-.37l-7.84,3.91a.81.81,0,0,0-.37,1.08h0A.8.8,0,0,0,221.33,317.29Z"/><path class="cls-8" d="M225.64,318.63l2-1a1.67,1.67,0,0,0,.75-2.23h0l-5,2.49h0A1.66,1.66,0,0,0,225.64,318.63Z"/><path class="cls-48" d="M210.21,295.5a.66.66,0,1,0,.17-1A.69.69,0,0,0,210.21,295.5Z"/><path class="cls-49" d="M218.08,296.74a2.61,2.61,0,1,0,.66-3.8A2.73,2.73,0,0,0,218.08,296.74Z"/><path class="cls-50" d="M210.67,297c-1.31,2.85.4,5.66,1.91,8,.42.68-.69,1.23-1.11.56-1.69-2.66-3.43-5.84-2-9,.33-.72,1.51-.33,1.18.39Z"/><path class="cls-51" d="M221.81,312.07l-4.11-8.27a4.36,4.36,0,0,1-3.11-.63,1.53,1.53,0,0,1-.81-1.28,1.07,1.07,0,0,1,.73-.85c1.7-.74,3,1,3.46,2l0,.07a4.47,4.47,0,0,0,.46-.19,14.48,14.48,0,0,0,1.79-1c-.79-2-.58-3.57.14-4,.18-.1.79-.35,1.45.65a2.22,2.22,0,0,1,.36,1.83,3.4,3.4,0,0,1-1.27,1.69c0,.1.09.2.14.29l4,8.06-.5.24-4-8.05-.1-.2a14.22,14.22,0,0,1-1.76,1,3,3,0,0,1-.46.19l4.06,8.17Zm-6.48-10.65a1.43,1.43,0,0,0-.59.13c-.18.08-.38.21-.4.39s.2.51.57.77a3.74,3.74,0,0,0,2.53.56C217.3,303,216.52,301.42,215.33,301.42Zm5.45-3a.2.2,0,0,0-.11,0c-.38.21-.61,1.41,0,3.14a2.75,2.75,0,0,0,.95-1.3,1.66,1.66,0,0,0-.29-1.37C221.2,298.63,221,298.39,220.78,298.39Z"/><path class="cls-52" d="M160.9,339c.48-.79,5.66-7.32,12.64-2.52,4.52,3.1,2.29,6.44,8.05,11.31l-2.48,3.62-.1.14-2.48,3.61c-6.61-3.63-8.82-.52-13.33-3.62C156.21,346.73,160.33,339.73,160.9,339Z"/><path class="cls-53" d="M177,350.19h8.9a0,0,0,0,1,0,0V352a4,4,0,0,1-4,4H181a4,4,0,0,1-4-4v-1.83A0,0,0,0,1,177,350.19Z" transform="translate(-212.33 302.81) rotate(-55.52)"/><path class="cls-8" d="M177,350.19h8.9a0,0,0,0,1,0,0v3.73a2.08,2.08,0,0,1-2.08,2.08H179.1a2.08,2.08,0,0,1-2.08-2.08v-3.73A0,0,0,0,1,177,350.19Z" transform="translate(-212.33 302.79) rotate(-55.52)"/><path class="cls-54" d="M178.55,356.34l4.88-7.1a.79.79,0,0,0-.21-1.1h0a.8.8,0,0,0-1.1.21l-4.87,7.1a.79.79,0,0,0,.2,1.1h0A.8.8,0,0,0,178.55,356.34Z"/><path class="cls-55" d="M180.24,357.5l4.87-7.1a.79.79,0,0,0-.2-1.1h0a.79.79,0,0,0-1.1.2l-4.88,7.1a.8.8,0,0,0,.21,1.1h0A.79.79,0,0,0,180.24,357.5Z"/><path class="cls-8" d="M184.57,356.6l1.26-1.83a1.63,1.63,0,0,0-.43-2.27h0L182.3,357h0A1.64,1.64,0,0,0,184.57,356.6Z"/><path class="cls-56" d="M160.29,344.1a.67.67,0,0,0,.93-.23.71.71,0,0,0-1.25-.68A.68.68,0,0,0,160.29,344.1Z"/><path class="cls-57" d="M167.63,341.41a2.57,2.57,0,1,0-1.24-3.58A2.68,2.68,0,0,0,167.63,341.41Z"/><path class="cls-58" d="M161.38,345.14c.24,3.07,3.05,4.67,5.48,6,.69.38,0,1.38-.69,1-2.71-1.48-5.73-3.38-6-6.78-.06-.77,1.14-1,1.19-.22Z"/><path class="cls-59" d="M178.15,352.79l-7.47-5.13a4.31,4.31,0,0,1-3,.94,1.49,1.49,0,0,1-1.31-.72,1,1,0,0,1,.22-1.08c1.11-1.45,3.07-.57,3.95.1l.05,0a3.79,3.79,0,0,0,.31-.37,12.86,12.86,0,0,0,1-1.75c-1.62-1.33-2.2-2.79-1.77-3.49.1-.17.51-.68,1.56-.13a2.17,2.17,0,0,1,1.18,1.39,3.37,3.37,0,0,1-.28,2.06l.26.18,7.28,5-.32.46-7.28-5-.17-.12a14.09,14.09,0,0,1-1,1.71,3.86,3.86,0,0,1-.3.38l7.38,5.07Zm-9.91-6.22a1.4,1.4,0,0,0-1.17.57c-.11.15-.23.35-.16.52a1.07,1.07,0,0,0,.86.38,3.63,3.63,0,0,0,2.43-.72A4,4,0,0,0,168.24,346.57Zm2.66-5.06a.24.24,0,0,0-.23.11c-.22.35.16,1.5,1.52,2.66a2.64,2.64,0,0,0,.2-1.55,1.63,1.63,0,0,0-.9-1A1.47,1.47,0,0,0,170.9,341.51Z"/><path class="cls-35" d="M225.72,318.81c8.47,26.24-1.55,89-4.61,117.6"/><path class="cls-60" d="M226.43,321.94s-15.15-3.08-11.11-7.51,8,3.12,8,3.12-4.46-6.29-.74-7.24,4.73,6.5,4.73,6.5-.88-9.46,2.84-8.57S233,319,226.43,321.94Z"/><path class="cls-61" d="M244.35,394s5.11-14.59,8.94-10-4.18,7.54-4.18,7.54,6.83-3.56,7.27.25-7.09,3.8-7.09,3.8,9.5.42,8.12,4S246.37,400.9,244.35,394Z"/><path class="cls-62" d="M188.24,359.24s-14.49,5.39-13.4-.5,8.48-1.6,8.48-1.6-7.11-3-4.45-5.75,7.45,3,7.45,3-5.75-7.58-2.12-8.79S192.23,353.29,188.24,359.24Z"/><path class="cls-63" d="M220.14,426.62c-9.21-3.56-14.26-13.32-18-22.47S194.8,385,186.62,379.49c6.61.16,12.41,4.79,16,10.35s5.33,12.05,7.43,18.31S220.14,426.62,220.14,426.62Z"/><path class="cls-64" d="M214.91,392.54s0,0,0,0v0Z"/><path class="cls-65" d="M213.28,393.93c-4.34-10-7.93-20.52-9.16-31.39s0-22.21,5-32a53.81,53.81,0,0,1,5.81,40c-1.76,7-4.94,14.38-2.33,21.12"/><path class="cls-66" d="M226.29,392.68c6.91-10.41,7.52-23.64,11.55-35.47a63.15,63.15,0,0,1,13.88-23c-1.71,10.9-2.26,22.06-5.43,32.63s-9.54,20.85-19.54,25.52"/><path class="cls-67" d="M223.75,422.18c.84-5,5.51-8.49,10.34-9.9s10-1.2,15-1.72,10.27-2,13.55-5.78c-.18,6.29-5,11.78-10.85,14.2s-12.39,2.26-18.61,1.25c-3.1-.51-6.67-1.09-9,1"/><path class="cls-6" d="M223.94,422.28c6-11.16,22.37,2.47,29.49-7.61.16-.23-.2-.44-.36-.22-7,9.92-23.38-3.75-29.5,7.62-.12.24.24.45.37.21Z"/><path class="cls-6" d="M225.35,393.25a20.64,20.64,0,0,0,7.66-6.69,71.37,71.37,0,0,0,7-11.39c3.78-7.89,4.47-16.76,5.1-25.36,0-.27-.4-.27-.42,0-.63,8.54-1.31,17.3-5.05,25.15a73.46,73.46,0,0,1-6,10c-2.27,3.28-4.84,6.22-8.52,7.94-.24.12,0,.48.22.37Z"/><path class="cls-6" d="M211.7,389.75a118.92,118.92,0,0,1-2.6-39.62c0-.26-.4-.26-.42,0a119.58,119.58,0,0,0,2.61,39.73c.06.27.47.16.41-.11Z"/><path class="cls-6" d="M220.25,426.44c-4.32-3.08-9.2-6.39-11.11-11.56-1.3-3.52-2.31-7.15-3.5-10.7-2.14-6.38-4.66-15.71-10.79-19.48a.21.21,0,0,0-.21.36c3.37,2.08,5.32,6.1,6.91,9.59a120.09,120.09,0,0,1,4.84,13.18,74.69,74.69,0,0,0,2.92,8.62c2.1,4.48,6.82,7.57,10.72,10.35.22.16.43-.2.22-.36Z"/><polygon class="cls-68" points="258.64 449.98 257.18 457.1 250.97 487.73 193.88 487.73 187.67 457.1 186.21 449.98 258.64 449.98"/><polygon class="cls-69" points="258.64 447.03 258.64 449.98 257.18 457.1 187.67 457.1 186.21 449.98 186.21 447.03 258.64 447.03"/><rect class="cls-70" x="179.63" y="440.64" width="83.38" height="12.23"/><polygon class="cls-71" points="258.04 452.87 232.21 452.87 193.88 487.73 250.97 487.73 258.04 452.87"/></g><g id="gear"><path class="cls-72" d="M395.32,443.07h6.9a23.94,23.94,0,0,0,2,4.84l-4.87,4.88,9.41,9.42h0l4.88-4.88a23.38,23.38,0,0,0,4.84,2v6.9H431.8v-6.9a23.38,23.38,0,0,0,4.84-2l4.88,4.88,9.42-9.42-4.88-4.88a23.38,23.38,0,0,0,2-4.84H455V429.75h-6.9a23.38,23.38,0,0,0-2-4.84l4.88-4.88-9.42-9.41-4.88,4.87a23.94,23.94,0,0,0-4.84-2v-6.9H418.48v6.9a23.94,23.94,0,0,0-4.84,2l-4.88-4.87h0L399.35,420l4.87,4.88a23.94,23.94,0,0,0-2,4.84h-6.9Zm20.13-.22c-6.22-11.06,5.07-22.35,16.13-16.13a8.46,8.46,0,0,1,3.25,3.25c6.22,11.06-5.07,22.35-16.13,16.13A8.6,8.6,0,0,1,415.45,442.85Z"/><g class="cls-73"><path class="cls-72" d="M395.32,443.07h6.9a23.94,23.94,0,0,0,2,4.84l-4.87,4.88,9.41,9.42h0l4.88-4.88a23.38,23.38,0,0,0,4.84,2v6.9H431.8v-6.9a23.38,23.38,0,0,0,4.84-2l4.88,4.88,9.42-9.42-4.88-4.88a23.38,23.38,0,0,0,2-4.84H455V429.75h-6.9a23.38,23.38,0,0,0-2-4.84l4.88-4.88-9.42-9.41-4.88,4.87a23.94,23.94,0,0,0-4.84-2v-6.9H418.48v6.9a23.94,23.94,0,0,0-4.84,2l-4.88-4.87h0L399.35,420l4.87,4.88a23.94,23.94,0,0,0-2,4.84h-6.9Zm20.13-.22c-6.22-11.06,5.07-22.35,16.13-16.13a8.46,8.46,0,0,1,3.25,3.25c6.22,11.06-5.07,22.35-16.13,16.13A8.6,8.6,0,0,1,415.45,442.85Z"/></g><path class="cls-72" d="M395.32,443.07h6.9a23.94,23.94,0,0,0,2,4.84l-4.87,4.88,9.41,9.42h0l4.88-4.88a23.38,23.38,0,0,0,4.84,2v6.9H431.8v-6.9a23.38,23.38,0,0,0,4.84-2l4.88,4.88,9.42-9.42-4.88-4.88a23.38,23.38,0,0,0,2-4.84H455V429.75h-6.9a23.38,23.38,0,0,0-2-4.84l4.88-4.88-9.42-9.41-4.88,4.87a23.94,23.94,0,0,0-4.84-2v-6.9H418.48v6.9a23.94,23.94,0,0,0-4.84,2l-4.88-4.87h0L399.35,420l4.87,4.88a23.94,23.94,0,0,0-2,4.84h-6.9Zm20.13-.22c-6.22-11.06,5.07-22.35,16.13-16.13a8.46,8.46,0,0,1,3.25,3.25c6.22,11.06-5.07,22.35-16.13,16.13A8.6,8.6,0,0,1,415.45,442.85Z"/></g><g id="plant_4" data-name="plant 4"><line class="cls-74" x1="465.23" y1="448.93" x2="465.23" y2="454"/><line class="cls-74" x1="467.51" y1="451.47" x2="462.95" y2="451.47"/><path class="cls-75" d="M473.27,468.5c1.11.49,41.23-50.82,27.81-54.18s-14.23-8.6-7.27-17.94-5.87-11.08-12.16-6.68,6.72-15.81.29-18.1-12.12,6-11,18.06-8.68-2.05-10.68,4.63,12.08,20.84,2.95,20.94-15.63,1.45-10.06,14.93S473.27,468.5,473.27,468.5Z"/><path class="cls-6" d="M489.75,422.12a.23.23,0,0,0-.32-.07,53.71,53.71,0,0,0-16.1,17.82c.05-8.66.2-18.22.56-27.06A58.51,58.51,0,0,1,485,397.7a.24.24,0,1,0-.32-.35,58.76,58.76,0,0,0-10.77,14.34c.53-12.29,1.49-23,3.14-27.76a.24.24,0,0,0-.15-.3.23.23,0,0,0-.3.14c-1.28,3.67-2.15,10.92-2.72,19.7a26.94,26.94,0,0,0-8.88-6.1.23.23,0,0,0-.31.13.23.23,0,0,0,.12.31,26.13,26.13,0,0,1,9,6.32c-.17,2.73-.32,5.6-.44,8.55a.22.22,0,0,0,0,.16c-.24,5.92-.39,12.16-.48,18.24-1.41-2.09-6.3-8.65-13-10.41a.24.24,0,0,0-.12.46c7.56,2,12.77,10.2,13.15,10.81,0,3-.07,6-.08,8.82a.29.29,0,0,0,0,.13c-.07,15.16.17,27.32.18,27.61a.22.22,0,0,0,.14.21.17.17,0,0,0,.1,0,.24.24,0,0,0,.23-.25c0-.29-.25-12.47-.18-27.63a53.42,53.42,0,0,1,16.36-18.41A.24.24,0,0,0,489.75,422.12Z"/><path class="cls-76" d="M415.3,362.18c7-2,4.06,10.29,9.51,19.07.94,1.12,1.85,2.28,2.72,3.46-.43-2.41-.34-5.9.73-6.67,2.8-2,2.33,2.91,2.11,4a16.66,16.66,0,0,1-1.56,4.41c1.19,1.69,2.32,3.42,3.39,5.16-.11-.58-.2-1.12-.28-1.49-.63-2.91-1.36-8.9,2.27-8.91,4.58,0,.34,9.89-.39,13,.11.18,1.62,2.85,2.24,4-.35-3.7.18-10,3.33-10.16,6.66-.32-1.65,7.84-2.43,11.67,1.06,2.14,2.5,5.5,3.39,7.72a14.09,14.09,0,0,1,.56-6.09c1-2.5,3.53-4.66,4.27-1.1.43,2.06-1.06,3.84-2,5.61a25.6,25.6,0,0,0-1.77,4.31c.73,2,1.4,4,2,6.09,0-3,.39-6.19,2-8.39,3.1-4.2,6.55-.48,6.05,3.32s-5.1,6-7.12,8.65q.68,2.81,1.15,5.65c.9-3.08,1.85-6.45,4.26-8.53s7.21-1.82,6.54,2c-.83,4.65-7.87,4.77-10.63,7.52q.6,3.81.94,7.7a23.15,23.15,0,0,1,3.21-6.24c2.26-2.92,5.71-1.07,5.64,2.19-.09,4.66-6,5.22-8.61,7.28.09,1.39.15,2.78.2,4.19.06,1.61.14,3.85.2,5.46,1.08-2.58,2.79-5.76,4.44-6.84,3.42-2.25,6.33.85,4.14,4.17-2.09,3.15-6.3,3-8.47,5.49.11,2.26.26,4.52.47,6.77,1.86-3.83,5.81-7.57,9.24-7.83,3.77-.29,5.09,2.77,2.49,5.41-1.87,1.9-8.63,2.66-11.48,4.8a75,75,0,0,0,1.3,7.7c.3,1.3-1.74,2-2.13.71a47,47,0,0,1-1.28-5.52c-.22-2.43-2.25-2.85-4.09-3.64-2.12-.91-12.58,2.26-9.47-5.75,2.63-6.77,9.93,1.05,13,5.2-.17-1.6-.29-3.2-.38-4.8a7.05,7.05,0,0,0-3.52-3.79c-3.23-1.85-16.65-1.83-14.5-8.27,3.35-10.06,16.14,6.23,17.95,10.83-.13-2.78-.31-9.37-.33-9.9a9.28,9.28,0,0,0-4.17-3.5c-2.07-.9-8.81-3.1-7.16-6.79s6.66.45,7.66,2a32.61,32.61,0,0,1,3.58,6.29c-.14-2.89-.35-5.77-.67-8.62-6-5.68-18.37-5.41-14.95-11,3.87-6.4,9.19,6.07,14.82,9.94a92.2,92.2,0,0,0-1.6-9.3c-.72-.35-1.78-1.26-3.17-1.9-3.12-1.43-9.59-1.38-10-5-.53-5,4-4.44,6.7-2.61,2.95,2,4.35,5,6,7.85l0-.11a97.62,97.62,0,0,0-3-9.68c-4.17-2.2-15.66-1-12.44-7.15,2.5-4.76,9.6,2.73,12.13,6.32q-1.74-4.65-3.91-9.11c-.54.23-1.45-.56-3.47-.84-2.81-.38-8.43-.22-8.83-4.09-.28-2.71,4.13-2.32,6.08-1.46,2.2,1,3.77,3.42,5.5,5-.3-.6-3.49-6.4-4.88-8.63-4.34-1.66-16.57-3.37-14.59-7.65,2.22-4.82,9.95,2.61,13.8,6.39-.48-.74-4.23-6.38-5.19-7.63a33.2,33.2,0,0,1-10.31-6.9C410.22,371.2,407,364.52,415.3,362.18Z"/><path class="cls-77" d="M470.21,472.07q-.29-.27-.54-.54C469.58,471.94,469.77,472.11,470.21,472.07Z"/><path class="cls-78" d="M524.62,388.66c-4-14.33-17.29-6.28-22.88,6.09-1.69,3.72-4,10.71-6.74,19-6.33,19.17-14.84,45.29-22.67,54-1.69,1.9-2.52,3.12-2.66,3.75q.25.27.54.54a10.12,10.12,0,0,0,3.14-1.42c9.72-5.78,23.34-20.58,34.19-36.54C519.07,417.12,527.46,398.82,524.62,388.66Z"/><path class="cls-79" d="M469.66,471.55c-.13.65.48.68,1.62.19,30.3-26.21,45.9-84.21,46-84.4a.6.6,0,1,0-1.15-.31C516,387.22,500.21,446,469.66,471.55Z"/><path class="cls-80" d="M540.15,432.18c-7.31-2.2-20.23,3-32.79,10.71-13.74,8.44-27,19.89-32.07,28-1.93,3.09-1.65,4.16,2.22.84,10-8.54,47.77-17.59,57.51-21.75a25,25,0,0,0,3.29-1.71C546.06,443.46,550,435.14,540.15,432.18Z"/><path class="cls-79" d="M474.52,473.72c-.51.1-.52-.38-.11-1.26,21-23.23,66.5-34.45,66.65-34.49a.46.46,0,0,1,.56.34.46.46,0,0,1-.34.57C541.14,438.92,495,450.29,474.52,473.72Z"/></g><g id="bulb-3" data-name="bulb"><path class="cls-81" d="M431.69,458.93c-.65,1.93-4.16,19.87,13.79,24.69,11.61,3.12,14-5.36,30.35-2.68l2.5-9.28.1-.38,2.49-9.28c-15.49-5.87-13.43-14-25-17.09C437.93,440.09,432.1,456.93,431.69,458.93Z"/><path class="cls-82" d="M478.94,466.79H490.1a4.18,4.18,0,0,1,4.18,4.18v8.57a0,0,0,0,1,0,0H474.76a0,0,0,0,1,0,0V471A4.18,4.18,0,0,1,478.94,466.79Z" transform="translate(1067.18 127.97) rotate(105.03)"/><path class="cls-8" d="M478.94,466.79H490.1a4.18,4.18,0,0,1,4.18,4.18v8.57a0,0,0,0,1,0,0H474.76a0,0,0,0,1,0,0V471A4.18,4.18,0,0,1,478.94,466.79Z" transform="translate(1067.18 127.97) rotate(105.03)"/><path class="cls-83" d="M485.79,463.68l-4.9,18.24a1.74,1.74,0,0,1-2.13,1.23h0a1.74,1.74,0,0,1-1.23-2.13l4.9-18.24a1.74,1.74,0,0,1,2.13-1.23h0A1.74,1.74,0,0,1,485.79,463.68Z"/><path class="cls-84" d="M490.11,464.84l-4.9,18.25a1.73,1.73,0,0,1-2.12,1.22h0a1.74,1.74,0,0,1-1.23-2.13l4.9-18.24a1.74,1.74,0,0,1,2.13-1.22h0A1.73,1.73,0,0,1,490.11,464.84Z"/><path class="cls-8" d="M494.78,473.36l-1.26,4.69a3.58,3.58,0,0,1-4.39,2.54h0L492.25,469h0A3.58,3.58,0,0,1,494.78,473.36Z"/><path class="cls-85" d="M439.35,450.63a1.43,1.43,0,1,1-1,2.66,1.43,1.43,0,1,1,1-2.66Z"/><path class="cls-86" d="M445.31,466.73a5.63,5.63,0,1,1-7.74,3A5.89,5.89,0,0,1,445.31,466.73Z"/><path class="cls-87" d="M442.63,451c5.46-4,12.13-1.57,17.8.6,1.61.61,2.29-2,.69-2.59-6.32-2.42-13.78-4.74-19.82-.33-1.38,1-.06,3.33,1.33,2.32Z"/><path class="cls-88" d="M477.24,475.71l-18.71-5-.65-.16a7.3,7.3,0,0,1-3,3.38,4.74,4.74,0,0,1-4,0c-2.42-1-2.16-2.4-2-2.82.58-1.72,3.84-2.84,8.37-2a28.16,28.16,0,0,0,1.43-4.19,7.17,7.17,0,0,0,.19-1l-.14,0c-2.36-.51-6.64-2.53-5.79-6.47a2.31,2.31,0,0,1,1.51-1.93,3.32,3.32,0,0,1,3.09,1.18,9.36,9.36,0,0,1,2.66,6.29L479.3,468l-.33,1.25-19-5.09a7.08,7.08,0,0,1-.2,1,32.08,32.08,0,0,1-1.38,4.13l.42.11,18.71,5Zm-22.95-5.63c-2.51,0-4.06.75-4.29,1.42-.15.47.56.94,1.28,1.23a3.51,3.51,0,0,0,3,0,5.79,5.79,0,0,0,2.29-2.49A15.79,15.79,0,0,0,454.29,470.08Zm.63-13.45a.64.64,0,0,0-.2,0c-.36.1-.54.58-.62,1-.73,3.36,3.86,4.7,4.7,4.91a8,8,0,0,0-2.25-5A2.78,2.78,0,0,0,454.92,456.63Z"/></g><g id="lady"><path class="cls-89" d="M140.45,285.27s-2.5,6.16-1.58,9.51,2.65,8.07-.71,9.36-7.19,2.64-4.95,5.14,1.4,3.92-.47,5-2.58,5,2.26,5.74c0,0-2.46,3.59-8.83.26s-8.26-17.66-5.87-22.13S134.12,279.45,140.45,285.27Z"/><path class="cls-90" d="M58.06,471.62l-1.64,3.79s-9.11-1.47-8.82-4.43l1.46-3.93Z"/><path class="cls-20" d="M54.28,469.67l3.78,1.95-1.64,3.79a27.93,27.93,0,0,1-4.6-1.13Z"/><path class="cls-90" d="M99.85,476.62l.52,3.14a7.32,7.32,0,0,0,3,.85l.5-4.67A36,36,0,0,0,99.85,476.62Z"/><path class="cls-20" d="M109,479.76l.43-3.14c-.94-.94-3.41-.93-5.6-.68l-.5,4.67A14.33,14.33,0,0,0,109,479.76Z"/><path class="cls-91" d="M101.54,491.22s1.85-6.53,1.53-7.82a10,10,0,0,1,.39-3.75,7,7,0,0,0-3.09.11c-1.43.64-3.09,11.59-2.62,12.73S109,493.8,113,494s15.28-.88,15.47-1.4a3.75,3.75,0,0,0,.07-1.17c-.21,0-9.22.26-12,.78S101.54,491.22,101.54,491.22Z"/><path class="cls-92" d="M115.84,484.85c-2.33-.09-6.81-5.09-6.81-5.09-1.12-.9-3.09.31-3.09.31s-1.17-.27-2.48-.42a10,10,0,0,0-.39,3.75c.32,1.29-1.53,7.82-1.53,7.82s12.28,1.57,15.06,1,11.76-.77,12-.78c0-.48-.07-.9-.07-.9C127.69,485.38,118.17,485,115.84,484.85Z"/><path class="cls-91" d="M58.06,483.83c-1.11-1.46-6.39-1.64-6.39-1.64l3-.57a10,10,0,0,1-3.07-3.82c-.78-2.14.72-4.52.72-4.52h0c-1.83-1.12-4.12-2.51-4.43-2.64-.53-.23-5.44,3.71-6.06,6.54s11.15,13.33,13,14.13a7.78,7.78,0,0,0,2.05.36S59.17,485.29,58.06,483.83Z"/><path class="cls-92" d="M65.58,491.55c.45-.14.21-1.87.21-1.87-.35-5.14-6.77-8-7.58-8s-1.75-6.35-1.75-6.35c-.34-1.82-1.74-.58-1.74-.58l-2.37-1.44h0s-1.5,2.38-.72,4.52a10,10,0,0,0,3.07,3.82l-3,.57s5.28.18,6.39,1.64S57,491.67,57,491.67A58.66,58.66,0,0,0,65.58,491.55Z"/><path class="cls-91" d="M106.18,447.63c-2.14-7-.43-20.13,3.28-31.17s-3.9-30.46-8.85-36.36-28.46-13.71-30.88-17.93c-1.47-2.56-5.33-4.67-8.13-5.93a35.13,35.13,0,0,0,0,17.09c3.14,11.34,3.85,40.47,2.28,44s-7,12.57-8.56,23-6.29,26.7-6.29,26.7a12.48,12.48,0,0,0,4.62,3.61c.06-.09,9.09-15.2,8.09-23.74s8.71-23.13,11.57-30.84-4.86-41.66-4.86-41.66l18,23.29s11.42,15.61,11.61,20.65-3.23,14.38-2.38,26.09,4.1,32.17,4.1,32.17a20.64,20.64,0,0,0,3.71.78C103.91,475.73,108.23,454.36,106.18,447.63Z"/><path class="cls-92" d="M73.34,416.08c-2.86,7.71-12.57,22.27-11.57,30.84s-8,23.65-8.09,23.74a10.54,10.54,0,0,0,4.38,1s18.26-49.12,21.7-56.54a182.31,182.31,0,0,0,6.76-17.37l-18-23.29S76.19,408.37,73.34,416.08Z"/><path class="cls-92" d="M109.46,476.62s7.71-59.26,5.86-70-13.14-42.84-13.14-42.84l-39-12.73a33.54,33.54,0,0,0-1.6,5.15c2.8,1.26,6.66,3.37,8.13,5.93,2.42,4.22,25.93,12,30.88,17.93s12.56,25.32,8.85,36.36-5.42,24.18-3.28,31.17c2,6.73-2.27,28.1-2.62,29.77A10.21,10.21,0,0,0,109.46,476.62Z"/><path class="cls-93" d="M121,308.63s8.7,19.78,13.41,21.14,22.84,7.14,22.84,7.14l-1.28,6.49s-24.92-2.78-30.34-5.85S113.67,326,113.67,326Z"/><path class="cls-94" d="M119,330.05c-4.36-1.12-12.88-18.39-12.88-18.39,11.71,19,15.94,14.47,15.57,16.14a7.31,7.31,0,0,0,1-1.39c1.14-2.07-1.7-22.75-1.7-22.75-15.34-22-31.52-1.2-32.26-.19S81.76,317.2,79.76,321,63,347.26,61.56,348.33s-2.07,3.93.85,4.92c1.09.38,3.83,2.44,7.32,5,0,0,22.88,9.28,20.6-.71S78.05,345,83,336.79l5-8.19s3.52-10.47,5-4.38,6.66,13.52,7.9,14.57l1.24,1,5.73,3.57A120.14,120.14,0,0,0,124,347c7.85,1.07,30.53.24,30.53.24l.86-7.28C148.16,340.05,119,330.05,119,330.05Z"/><path class="cls-93" d="M93.11,322.62c-1.1-6.16,2.18-12.7,2.18-12.7L88,328.6l-5,8.19c-5,8.18,5,10.75,7.33,20.75s-20.59.72-20.6.71c5.91,4.33,14,10.05,20,11.35a22,22,0,0,0,16.06-2.35s-2.21-7.78-3.43-11.78,5.45-12.07,5.45-12.07S95.06,333.49,93.11,322.62Z"/><path class="cls-93" d="M106.08,311.66s8.52,17.27,12.88,18.39a13.55,13.55,0,0,0,2.69-2.25C122,326.13,117.79,330.69,106.08,311.66Z"/><path class="cls-90" d="M132.74,275s-4.49,9.74-7.72,10.5-3.47,5-3.47,5l3.22,4.18a9.16,9.16,0,0,0,3.61,2.29c10.92-3.64,16.49-19.28,16.49-19.28C141.65,272.44,137.09,273,132.74,275Z"/><path class="cls-20" d="M125,285.48c3.23-.76,7.7-10.45,7.72-10.5a72.56,72.56,0,0,0-7.81,4.69c-5.57,3.53-12.33,11.85-13.18,13.66s6.66,15,7.09,11.76,5.93-10.38,5.93-10.38l-3.22-4.18S121.79,286.24,125,285.48Z"/><path class="cls-95" d="M151.39,273.55c-1.62-.75-2.14-5.73-3.33-9.39s-14.18-9.57-29-5.9-9.71,17.8-9,21.27-7.76,2.29-5.85,5.52-.38,4.62-6.71,6.62-8.81,11.8-8.81,11.8,3.57-3.14,7.57-2.81,9.28-1.19,9.28-1.19c.09,10.19,13.9,12.95,13.9,12.95s-11-6.5-10-11.21,6.93-8.78,5.57-12.56,5.35-6.43,5.93-9,11.58-4.23,11.58-4.23c5.42,3.83,12.33,2.3,12.33,2.3l-1.37,3.22C150.83,279.78,153,274.3,151.39,273.55Z"/><path class="cls-89" d="M121,279.65c-.58,2.57-7.29,5.21-5.93,9s-4.57,7.85-5.57,12.56,10,11.21,10,11.21-2.29-1.62-.62-5.71-2-3.76-3.24-7.52,5.52-3.67,3.43-7.24-.91-4.85,5-7.23,8.51-9.3,8.51-9.3S121.53,277.08,121,279.65Z"/><path class="cls-89" d="M144.87,277.72s4.52-.81,5.33-2.28c0,0-2.08,4.59-6.7,5.5Z"/><path class="cls-90" d="M164.49,346.09,176.74,344c-.38-1.17-1.53-2.63-2.2-2.63-.9,0-8.59-.59-8.59-.59,1.66-.24,4.14-1.64,4-2.43s-1.26.1-2.8-.12-4.88,1.12-6,1.5-5.79.29-5.79.29l-.57,4.82c1.66.36,4.68,1,6.5,1.17A12.4,12.4,0,0,0,164.49,346.09Z"/><path class="cls-20" d="M169.18,350.08c1.36-.25,7.32-4.07,7.64-5.14a1.71,1.71,0,0,0-.08-1l-12.25,2.13a12.4,12.4,0,0,1-3.19-.12c-1.82-.18-4.84-.81-6.5-1.17l-.29,2.46S167.83,350.33,169.18,350.08Z"/></g><g id="plant_2" data-name="plant 2"><path class="cls-96" d="M166.37,424.66c-.34,1.63.16,3.57-.12,5.24-.36,2.09-1.69,2.69-2.59,4a10.79,10.79,0,0,0-1.16,7,36.52,36.52,0,0,0,1.16,4.27,10.08,10.08,0,0,1,.32,4.63c-.51,2.23-3.21,4-3.21,13.39,0,8.61,6.14,11.95,7.89,14.06V421.44l-.79.77A4.52,4.52,0,0,0,166.37,424.66Z"/><path class="cls-97" d="M173.55,445.18a36.52,36.52,0,0,0,1.16-4.27,10.79,10.79,0,0,0-1.16-7c-.9-1.32-2.23-1.92-2.59-4-.28-1.67.22-3.61-.12-5.24a4.52,4.52,0,0,0-1.5-2.45l-.79-.77v55.82c1.75-2.11,7.89-5.45,7.89-14.06,0-9.43-2.7-11.16-3.21-13.39A10.08,10.08,0,0,1,173.55,445.18Z"/><path class="cls-98" d="M178.19,440.62c-.58.77-.33,1.92-.85,2.72-.66,1-2.11,1-3.22,1.42a3.56,3.56,0,0,0-2.16,3.36,12.74,12.74,0,0,0,.62,2.56,2.92,2.92,0,0,1-.31,2.52c-.83,1-3.85,1.22-5.15,6.17-1.17,4.53,4.71,7.94,6.22,9.52L181,439.55l-.92.18A3.06,3.06,0,0,0,178.19,440.62Z"/><path class="cls-99" d="M182.21,444.61c-.07-.95.72-1.84.59-2.78a3,3,0,0,0-1.21-1.7l-.71-.61-7.64,29.34c2.09-.64,8.89-.75,10.07-5.27,1.29-5-1.26-6.59-1.48-7.9a2.89,2.89,0,0,1,1-2.35,13,13,0,0,0,1.78-1.93,3.55,3.55,0,0,0-.24-4C183.58,446.48,182.29,445.81,182.21,444.61Z"/><path class="cls-91" d="M170.64,471.79c-2.29-3.43-16.78-6.13-16.78-6.13s4.78,5.12,4.78,8.57a15.08,15.08,0,0,1-.82,3.9,7.77,7.77,0,0,0,7.39,10.11h.45a16.49,16.49,0,0,0,1.83-5.91C167.49,479,172.92,475.22,170.64,471.79Z"/><path class="cls-92" d="M185.22,478.13a15.08,15.08,0,0,1-.82-3.9c0-3.45,4.78-8.57,4.78-8.57H153.86s14.49,2.7,16.78,6.13-3.15,7.23-3.15,10.54a16.49,16.49,0,0,1-1.83,5.91h12.17A7.77,7.77,0,0,0,185.22,478.13Z"/></g></g></g></g></svg>
