<svg xmlns="http://www.w3.org/2000/svg" xmlns:xlink="http://www.w3.org/1999/xlink" viewBox="0 0 600 600"><defs><style>.cls-1{fill:#fff;}.cls-2{fill:#1f1950;}.cls-3{fill:url(#linear-gradient);}.cls-4{fill:url(#linear-gradient-2);}.cls-5{fill:url(#linear-gradient-3);}.cls-6{fill:url(#linear-gradient-4);}.cls-7{fill:url(#linear-gradient-5);}.cls-8{fill:#f69159;}.cls-27,.cls-9{fill:#1f1a4e;}.cls-10{fill:url(#linear-gradient-6);}.cls-11{fill:#cf7961;}.cls-12{fill:#ffb84f;}.cls-13{fill:#f79f81;}.cls-14{fill:#403982;}.cls-15{fill:#3960ac;opacity:0.57;}.cls-16{fill:#ade1f7;}.cls-17{fill:#d1dbef;opacity:0.25;}.cls-18{fill:#3258a7;}.cls-19{fill:#1e4380;}.cls-20{fill:#d37444;}.cls-21{fill:url(#linear-gradient-7);}.cls-22{fill:#e3e3e3;}.cls-23{fill:url(#linear-gradient-8);}.cls-24{fill:#ffd788;}.cls-25{fill:#f4825d;}.cls-26{fill:#104ab2;}.cls-27{opacity:0.46;}.cls-28{fill:#709480;}.cls-29{fill:#b4c6b6;}.cls-30{fill:#f1eadf;}.cls-31{fill:url(#linear-gradient-9);}.cls-32{fill:url(#linear-gradient-10);}.cls-33{fill:url(#linear-gradient-11);}.cls-34{fill:url(#linear-gradient-12);}.cls-35{fill:#373175;}.cls-36{fill:#242259;}.cls-37{fill:#413a82;}.cls-38{fill:none;stroke:#221f1f;stroke-linecap:round;stroke-miterlimit:10;stroke-width:0.44px;}.cls-39{fill:#f9fcff;}</style><linearGradient id="linear-gradient" x1="231.74" y1="383.25" x2="230.72" y2="506.44" gradientUnits="userSpaceOnUse"><stop offset="0" stop-color="#242259"/><stop offset="1" stop-color="#986dae"/></linearGradient><linearGradient id="linear-gradient-2" x1="193.04" y1="382.93" x2="192.02" y2="506.12" xlink:href="#linear-gradient"/><linearGradient id="linear-gradient-3" x1="154.35" y1="382.61" x2="153.33" y2="505.8" xlink:href="#linear-gradient"/><linearGradient id="linear-gradient-4" x1="132.36" y1="401.63" x2="211.61" y2="314.82" gradientUnits="userSpaceOnUse"><stop offset="0" stop-color="#f79b5e"/><stop offset="0.29" stop-color="#faad60"/><stop offset="0.71" stop-color="#fec162"/><stop offset="1" stop-color="#ffc863"/></linearGradient><linearGradient id="linear-gradient-5" x1="174.74" y1="440.69" x2="254" y2="353.85" xlink:href="#linear-gradient-4"/><linearGradient id="linear-gradient-6" x1="515.28" y1="126.84" x2="319.04" y2="269.63" gradientUnits="userSpaceOnUse"><stop offset="0" stop-color="#fff4fb"/><stop offset="1" stop-color="#c6d6ee"/></linearGradient><linearGradient id="linear-gradient-7" x1="347.91" y1="221.85" x2="276.31" y2="300.59" gradientUnits="userSpaceOnUse"><stop offset="0.05" stop-color="#fad05a"/><stop offset="0.33" stop-color="#fac85a"/><stop offset="0.77" stop-color="#f9b159"/><stop offset="1" stop-color="#f8a359"/></linearGradient><linearGradient id="linear-gradient-8" x1="366.39" y1="238.66" x2="294.78" y2="317.39" xlink:href="#linear-gradient-7"/><linearGradient id="linear-gradient-9" x1="83.68" y1="494.43" x2="83.68" y2="404.68" xlink:href="#linear-gradient"/><linearGradient id="linear-gradient-10" x1="96.2" y1="494.43" x2="96.2" y2="404.68" xlink:href="#linear-gradient"/><linearGradient id="linear-gradient-11" x1="103.69" y1="451.62" x2="94.11" y2="485" gradientUnits="userSpaceOnUse"><stop offset="0" stop-color="#fdf4b6"/><stop offset="1" stop-color="#d07e2b"/></linearGradient><linearGradient id="linear-gradient-12" x1="113.52" y1="454.44" x2="103.95" y2="487.82" xlink:href="#linear-gradient-11"/></defs><g id="Layer_2" data-name="Layer 2"><g id="Layer_1-2" data-name="Layer 1"><rect class="cls-1" width="600" height="600"/><g id="chair"><rect class="cls-2" x="153.75" y="449.63" width="75.4" height="11.07"/><polygon class="cls-3" points="257.97 515.03 248.58 515.03 204.35 391.82 213.74 391.82 257.97 515.03"/><polygon class="cls-4" points="182.24 515.03 191.63 515.03 202.68 391.82 193.29 391.82 182.24 515.03"/><polygon class="cls-5" points="126.95 515.03 136.34 515.03 180.57 391.82 171.18 391.82 126.95 515.03"/><path class="cls-6" d="M138.07,304.67h80.61a5.42,5.42,0,0,1,5.42,5.42v82.84a0,0,0,0,1,0,0H139.39a3.55,3.55,0,0,1-3.55-3.55V306.9A2.23,2.23,0,0,1,138.07,304.67Z"/><path class="cls-7" d="M174.25,392.93h75.51a4.36,4.36,0,0,1,4.36,4.36v3a4.36,4.36,0,0,1-4.36,4.36H174.25a0,0,0,0,1,0,0V392.93A0,0,0,0,1,174.25,392.93Z"/><path class="cls-8" d="M142.18,380.3V309.64a5,5,0,0,0-5-5h0a5,5,0,0,0-5,5v71.59a23.45,23.45,0,0,0,23.45,23.45h17.23a5.87,5.87,0,0,0,5.88-5.87h0a5.88,5.88,0,0,0-5.88-5.88H154.8A12.62,12.62,0,0,1,142.18,380.3Z"/></g><g id="customer"><path class="cls-9" d="M419.93,104.3a94.81,94.81,0,0,0-39.65,180.92,93.66,93.66,0,0,0,14.62,5.32l.53.15a94.15,94.15,0,0,0,10.41,2.16,96.26,96.26,0,0,0,14.09,1,94.8,94.8,0,0,0,0-189.59Z"/><path class="cls-10" d="M513.82,196.89A94.8,94.8,0,1,0,379.37,283l.43-11.82-5.84-.65a2.55,2.55,0,0,1-1.68-4.16h0a4.47,4.47,0,0,0-.29-6l-.2-.19a6,6,0,0,1-1.53-5.92L381,217.36A27.07,27.07,0,0,1,402,198.28l29.19-5.44,6.27.4a21.78,21.78,0,0,1,20.39,20.62l2.4,47.16a12.49,12.49,0,0,1-6.67,11.69l-9.94,5.21-1.74,11A94.81,94.81,0,0,0,513.82,196.89Z"/><g id="body"><path class="cls-11" d="M392.48,272.61l-12.68-1.42L379.37,283A94.07,94.07,0,0,0,394,288.34Z"/><path class="cls-12" d="M460.26,261l-2.4-47.16a21.78,21.78,0,0,0-20.39-20.62l-6.27-.4L402,198.28A27.07,27.07,0,0,0,381,217.36l-10.7,36.89a6,6,0,0,0,1.53,5.92l.2.19a4.47,4.47,0,0,1,.29,6,2.55,2.55,0,0,0,1.68,4.16l5.84.65,12.68,1.42-10.58-1.18,1.73-11.84,5-33.91c-.49,4.55,1.14,21.66,2.44,33.91.78,7.4,1.45,13,1.45,13L394,288.34l.54.14a94.45,94.45,0,0,0,10.4,2.16c5.64-8.31,16.77-25.78,16-33.4-1-10.18,13.57-46.49,13.57-46.49s3.73,21.72,2.57,32.61-4.94,16.76-2.74,24.91a13.29,13.29,0,0,0,9.31,9.65l9.94-5.21A12.49,12.49,0,0,0,460.26,261Z"/><path class="cls-8" d="M388.59,225.68l-5,33.91-1.73,11.84,10.58,1.18s-.67-5.62-1.45-13C389.73,247.34,388.1,230.23,388.59,225.68Z"/><path class="cls-8" d="M434.34,268.27c-2.2-8.15,1.57-14,2.74-24.91s-2.57-32.61-2.57-32.61-14.59,36.31-13.57,46.49c.76,7.62-10.37,25.09-16,33.4a96.26,96.26,0,0,0,14.09,1,94.9,94.9,0,0,0,22.89-2.79l1.74-11A13.29,13.29,0,0,1,434.34,268.27Z"/></g><g id="head"><g id="face"><path class="cls-13" d="M409.91,202.94c9.32,3,20.2-10.86,20.2-10.86l-6.27-24.7-21.36,2.47S405.71,201.59,409.91,202.94Z"/><polygon class="cls-11" points="405.46 190.68 416.06 177.46 401.76 170.3 405.46 190.68"/><path class="cls-13" d="M388.7,157.11c.57,11.74,3.05,26.17,11.9,26.75,11.73.77,25.88-12.89,26.92-24.61s5.36-31.18-10.53-32.59C393.91,124.62,387.68,136.34,388.7,157.11Z"/></g><g id="hair"><path class="cls-14" d="M423.91,149.15c2.71-3.65,13.57-4.49,11.28-9.84s-4-10.38-4-10.38-2-13.24-19.24-9c-26.64,6.57-25.64,8.25-22.61,23.49,0,0,14.36,1.85,25.95-4.93,0,0,.41,8.16,5.18,12.32l-.83,8.73,1.48.57h0S421.19,152.8,423.91,149.15Z"/><path class="cls-9" d="M431.2,128.93s1.7,5,4,10.38-8.57,6.19-11.28,9.84-2.77,11-2.77,11h0L431.2,164C445.75,146.62,451.29,142.86,431.2,128.93Z"/></g><ellipse class="cls-13" cx="427.52" cy="162.53" rx="8.78" ry="6.82" transform="translate(124.27 504.92) rotate(-69.29)"/></g><g id="cp"><rect class="cls-9" x="421.23" y="157.11" width="11.7" height="24.46" rx="1.31" transform="translate(69.74 -119.42) rotate(17.31)"/><rect class="cls-14" x="422.96" y="157.71" width="12.12" height="24.46" rx="1.31" transform="translate(70.01 -119.97) rotate(17.31)"/><circle class="cls-9" cx="429" cy="160.36" r="1.24"/></g><g id="arm"><path class="cls-13" d="M453.82,257.92l-15.45-61s-3.22-12.23-2.67-14,5.09-14.54,5-15.86-6.66-6.8-7.25-7.18-4.5.85-4.75,2.34,1.31,7.39,1.23,8.12c0,0-.64,7.13,0,9.7s7.34,88.12,14.38,90.25a8,8,0,0,0,4.32-.78h0A10,10,0,0,0,453.82,257.92Z"/><path class="cls-11" d="M429.89,180c-.64-2.57,0-9.7,0-9.7-.09.74-3.13,6.26-2,9.35s.95,22.87.94,24.56c0,1.24,1.2,16.58,2.31,27.64,0,.14,0,.28,0,.42l.06.56.15,1.48c.32,3,.62,5.55.88,7.12v0a118.77,118.77,0,0,0,5.5,23.79,7.74,7.74,0,0,0,6.5,5C437.23,268.12,430.52,182.58,429.89,180Z"/></g><path class="cls-9" d="M461.09,146.69l.35-.07c5.62,3.36,9.27,3.2,11.11.34l.06-.09c1.56-2.43.78-5.32-2.34-7.32-2.73-1.76-5.77-2-9.27-1.12l-1-5.55a15.69,15.69,0,0,1,13.54,1.9c6.06,3.89,8,9.92,4.53,15.34l-.06.09c-3.5,5.46-9,5.4-14.38,3.13L461,156.53l-3.51-2.26Zm-7.24,10.42,5.8,3.73-3.84,6L450,163.09Z"/></g><path class="cls-13" d="M305.51,315.49c-1.75-.7-18.79,1.8-18.79,1.8L243.85,309l-15.95,2.73c16.07,14.91,44.49,11.52,54.25,9.81h.28c3.14,0,10.48,2.91,12.33,2.76s9,1.36,11,1.36,6.3-4.2,6.27-4.71S307.26,316.19,305.51,315.49Z"/><g id="bubble_text" data-name="bubble text"><path class="cls-15" d="M242.77,211.7,254,200.61h71.15c4.74,0,8.58-4.74,8.58-10.58v-14.5c0-5.84-3.84-10.57-8.58-10.57H251.35c-4.74,0-8.58,4.73-8.58,10.57Z"/><rect class="cls-16" x="261.45" y="173.05" width="61.4" height="1.44"/><rect class="cls-16" x="261.45" y="181.21" width="61.4" height="1.44"/><rect class="cls-16" x="261.45" y="189.37" width="61.4" height="1.44"/><path class="cls-15" d="M383.12,138.74l-11.24-11.09H300.72c-4.74,0-8.58-4.74-8.58-10.58v-14.5c0-5.84,3.84-10.58,8.58-10.58h73.81c4.74,0,8.59,4.74,8.59,10.58Z"/><rect class="cls-16" x="303.03" y="100.09" width="61.4" height="1.44"/><rect class="cls-16" x="303.03" y="108.25" width="61.4" height="1.44"/><rect class="cls-16" x="303.03" y="116.4" width="61.4" height="1.44"/><rect class="cls-17" x="47.33" y="207.77" width="94.98" height="32.6" rx="6.39"/><path class="cls-16" d="M125.52,217H64.11a1.09,1.09,0,0,1,0-2.17h61.41a1.09,1.09,0,0,1,0,2.17Z"/><path class="cls-16" d="M125.52,225.15H64.11a1.08,1.08,0,1,1,0-2.16h61.41a1.08,1.08,0,1,1,0,2.16Z"/><path class="cls-16" d="M125.52,233.31H64.11a1.08,1.08,0,1,1,0-2.16h61.41a1.08,1.08,0,1,1,0,2.16Z"/><rect class="cls-17" x="438.4" y="310.64" width="94.98" height="32.6" rx="6.39"/><path class="cls-16" d="M516.59,319.87H455.18a1.08,1.08,0,0,1,0-2.16h61.41a1.08,1.08,0,1,1,0,2.16Z"/><path class="cls-16" d="M516.59,328H455.18a1.09,1.09,0,0,1,0-2.17h61.41a1.09,1.09,0,0,1,0,2.17Z"/><path class="cls-16" d="M516.59,336.18H455.18a1.08,1.08,0,0,1,0-2.16h61.41a1.08,1.08,0,1,1,0,2.16Z"/></g><g id="pants"><g id="pants-2" data-name="pants"><path class="cls-18" d="M257.13,347.72H230.62L214.09,489.1l10.37.26c30.77-82.3,36.77-119.33,39.31-133.75A6.73,6.73,0,0,0,257.13,347.72Z"/><path class="cls-19" d="M214.09,489.1s33.32-80.83,25.75-132c-.48-3.25-9.22-9.39-9.22-9.39Z"/><path class="cls-18" d="M231.46,347.72,217.3,347l-4-18.09-52.89,4.85-6.55,20.48c-5.65,17.67-.66,24,18.62,25.3l21.23,3.51L153.86,489.67h11.26c38.1-58.56,67.15-110.85,74.36-130.44A8.55,8.55,0,0,0,231.46,347.72Z"/><path class="cls-19" d="M200.28,371.35c-12.87,3.16-26.42-1.32-29.07-9.38-3-9.15,4.65-14.25,4.65-14.25l-5.64-15.15-9.83,1.19-6.55,20.48c-5.65,17.67.77,24.7,18.94,27.21l20.91,1.6L156.08,484C210.79,396.91,200.28,371.35,200.28,371.35Z"/></g><g id="feet"><polygon class="cls-13" points="214.09 489.08 224.46 489.34 222.64 495.72 212.97 495.72 214.09 489.08"/><polygon class="cls-13" points="165.12 489.65 162.2 495.29 151.67 495.29 153.86 489.65 165.12 489.65"/></g></g><g id="shoes"><path class="cls-14" d="M217.83,511.41a11.5,11.5,0,0,0,6.33,5c1.4.2,6,.26,6,.26s-.56-6.94,3-8.29c-1.71-1-3.35-1.49-4.12-2-1.94-1.42-6-12-6-12l-10-.21-4.25,10.06h0S216.56,508.9,217.83,511.41Z"/><path class="cls-1" d="M216.93,513.26c2.3,3.6,5.09,4.84,10.47,5.24a76.51,76.51,0,0,0,11.16-.15c0-5.83-2.77-8.5-5.38-10-3.57,1.35-3,8.29-3,8.29s-4.61-.06-6-.26a11.5,11.5,0,0,1-6.33-5c-1.27-2.51-9-7.28-9-7.28h0l-.57,1.33S214.62,509.66,216.93,513.26Z"/><path class="cls-14" d="M153.35,507.09c1.65,1.45,5.34,7.13,6.83,8.57s7.21,1.32,7.21,1.32a9.33,9.33,0,0,1,5-8.46h0c-1.64-.88-3.18-1.33-3.92-1.87-1.94-1.42-5.83-12.07-5.83-12.07l-10.73-.16-3.81,9.71h0A25.42,25.42,0,0,1,153.35,507.09Z"/><path class="cls-1" d="M156.34,513.62c2.3,3.6,5.09,4.85,10.47,5.25a63.15,63.15,0,0,0,11.16-.36c0-6-2.91-8.56-5.58-10h0a9.33,9.33,0,0,0-5,8.46s-5.73.13-7.21-1.32-5.18-7.12-6.83-8.57a25.42,25.42,0,0,0-5.25-3h0l-.63,1.6S154,510,156.34,513.62Z"/></g><path class="cls-9" d="M243.73,303.63c-1.38-2.34-3.7-9-5.88-15.71-1.69-5.73-3.52-11.77-5.3-17.26h0c-3.08-9.53-6-17.39-7.57-19-4.55-4.53-14.66,30.28-14.66,30.28l10.23,17.33c2.8,5.43,5.51,10.65,5.92,11.21.88,1.21,3,5.5,14.65,9.35s25.7,3.23,25.7,3.23l1.94-9.27S247.46,310,243.73,303.63Z"/><path class="cls-14" d="M222.76,250.11l-13.35-5.39H187.57l-18.36,5.46A10.55,10.55,0,0,0,162,262.71l7.51,42.44-8.7,29.53h54.07l-4.15-29.95.13-.41a11.59,11.59,0,0,1,5.84-6.83c5-2.45,7.89-5.78,8.3-9.34a18.41,18.41,0,0,0-.32-5.23,51.36,51.36,0,0,1,1.55-25.46h0A5.94,5.94,0,0,0,222.76,250.11Z"/><path class="cls-9" d="M217.89,299a13,13,0,0,0,6.53-8.76s-6.63,6-29.62,3.81c-26.52-2.47-10,17.13-19.44,40.66h39.47s-3.79-27.8-3.24-29.43S215.05,300.4,217.89,299Z"/><polygon class="cls-9" points="173.61 284.96 168.01 296.93 166.1 288.61 173.61 284.96"/><path class="cls-14" d="M162.52,307.93c-.68-.25-1.2-4.13,1-7.62,2.31-3.69,10.1-15.35,10.1-15.35s-6-33.7-9.4-31.54-21.72,45.75-24.6,55.83c-.37,5.89,1.92,10.75,14.16,13a248.9,248.9,0,0,0,27,2.8c10.65.64,19.51.83,20.06.84h0L202.31,313S163.92,308.44,162.52,307.93Z"/><g id="mouse_x_keyboard" data-name="mouse x keyboard"><rect class="cls-12" x="218.38" y="320.96" width="77.88" height="5.53"/><path class="cls-20" d="M264.59,326.5H247.52a8.54,8.54,0,1,1,17.07,0Z"/></g><path id="hand" class="cls-13" d="M260.25,315.61c-1.95-.84-19.08,1.68-19.08,1.68L202.31,313l-1.45,12.86c23.64,0,43.34-3,44.27-2.86h.06l.22,0h.05a9.71,9.71,0,0,0,1.78.07,11.5,11.5,0,0,0,2.73-.42l.23-.07h0c.67-.18,1.18-.35,1.42-.41.69-.16,2.63,1.14,4,2.29s4.92.63,6.32.31,4-3.45,3.89-4.26S262.2,316.46,260.25,315.61Z"/><g id="pc"><path class="cls-20" d="M336.35,302.35H260.47a8.28,8.28,0,0,1-8.26-8.74l3-49.28a8.28,8.28,0,0,1,8.26-7.81h75.88a8.27,8.27,0,0,1,8.26,8.74l-3,49.28A8.28,8.28,0,0,1,336.35,302.35Z"/><path class="cls-21" d="M341.1,302.35H265.22a8.28,8.28,0,0,1-8.26-8.74l3-49.28a8.28,8.28,0,0,1,8.26-7.81h75.88a8.27,8.27,0,0,1,8.26,8.74l-3,49.28A8.28,8.28,0,0,1,341.1,302.35Z"/><path class="cls-20" d="M324.36,319l-9.61-35.27h1.6v-8.4a5.86,5.86,0,0,0-5.86-5.86H296.93a5.85,5.85,0,0,0-5.85,5.86v8.4L301,320.06a1.88,1.88,0,0,1-1.81,2.37H276.1v4.15h42.46A6,6,0,0,0,324.36,319Zm-11.42-5.46a5.36,5.36,0,1,1,5.35-5.36A5.36,5.36,0,0,1,312.94,313.53Z"/><path class="cls-22" d="M314.38,269.46H300.82a5.85,5.85,0,0,0-5.85,5.86v8.4h25.27v-8.4A5.86,5.86,0,0,0,314.38,269.46Z"/><path class="cls-22" d="M329.83,318.66l-9.51-34.94H295l1.42,5.23h0l8.94,32.82a3.82,3.82,0,0,1-3.42,4.81h21.88A6.27,6.27,0,0,0,329.83,318.66Zm-14.95-5.13a5.36,5.36,0,1,1,5.36-5.36A5.36,5.36,0,0,1,314.88,313.53Z"/><path class="cls-23" d="M329.83,318.66l-9.51-34.94h-.08v-8.4a5.86,5.86,0,0,0-5.86-5.86H300.82a5.85,5.85,0,0,0-5.85,5.86v8.4l1.42,5.23h0l8.94,32.82a3.82,3.82,0,0,1-3.42,4.81h21.88A6.27,6.27,0,0,0,329.83,318.66Zm-14.95-5.13a5.36,5.36,0,1,1,5.36-5.36A5.36,5.36,0,0,1,314.88,313.53Z"/><path class="cls-24" d="M329.83,319a.35.35,0,0,1-.34-.26L320,284a.36.36,0,0,1-.14-.29v-8.4a5.51,5.51,0,0,0-5.5-5.5H300.82a.36.36,0,0,1,0-.72h13.56a6.23,6.23,0,0,1,6.22,6.22v8.18a.27.27,0,0,1,.06.12l9.52,34.95a.36.36,0,0,1-.25.44Z"/><path class="cls-24" d="M323.78,326.94a.36.36,0,1,1,0-.72,5.91,5.91,0,0,0,5.71-7.46L320,283.81a.36.36,0,0,1,.25-.44.35.35,0,0,1,.44.25l9.52,34.95a6.63,6.63,0,0,1-6.4,8.37Z"/><path class="cls-25" d="M327.63,280.47h0a.59.59,0,0,1-.56-.63l1.63-29.13a.6.6,0,0,1,1.19.06l-1.63,29.14A.6.6,0,0,1,327.63,280.47Z"/><path class="cls-25" d="M331.52,280.47h0a.59.59,0,0,1-.56-.63l1.63-29.13a.6.6,0,0,1,1.19.06l-1.63,29.14A.6.6,0,0,1,331.52,280.47Z"/><path class="cls-25" d="M335.4,280.47h0a.6.6,0,0,1-.56-.63l1.64-29.13a.57.57,0,0,1,.62-.56.6.6,0,0,1,.57.62L336,279.91A.59.59,0,0,1,335.4,280.47Z"/><path class="cls-25" d="M339.28,280.47h0a.59.59,0,0,1-.56-.63l1.63-29.13a.6.6,0,0,1,1.19.06l-1.64,29.14A.59.59,0,0,1,339.28,280.47Z"/><path class="cls-25" d="M343.16,280.47h0a.59.59,0,0,1-.56-.63l1.63-29.13a.59.59,0,0,1,.63-.56.59.59,0,0,1,.56.62l-1.63,29.14A.6.6,0,0,1,343.16,280.47Z"/><path class="cls-25" d="M267.06,280.47h0a.59.59,0,0,1-.56-.63l1.63-29.13a.6.6,0,0,1,1.19.06l-1.63,29.14A.6.6,0,0,1,267.06,280.47Z"/><path class="cls-25" d="M270.94,280.47h0a.6.6,0,0,1-.56-.63L272,250.71a.57.57,0,0,1,.62-.56.6.6,0,0,1,.57.62l-1.64,29.14A.6.6,0,0,1,270.94,280.47Z"/><path class="cls-25" d="M274.82,280.47h0a.59.59,0,0,1-.56-.63l1.63-29.13a.6.6,0,0,1,1.19.06l-1.64,29.14A.59.59,0,0,1,274.82,280.47Z"/><path class="cls-25" d="M278.7,280.47h0a.59.59,0,0,1-.56-.63l1.63-29.13a.6.6,0,0,1,1.19.06l-1.63,29.14A.6.6,0,0,1,278.7,280.47Z"/><path class="cls-25" d="M282.59,280.47h0a.59.59,0,0,1-.56-.63l1.63-29.13a.6.6,0,0,1,1.19.06l-1.63,29.14A.6.6,0,0,1,282.59,280.47Z"/></g><g id="table"><path class="cls-16" d="M104.19,337.59h54.25a0,0,0,0,1,0,0V511.65A7.34,7.34,0,0,1,151.1,519H111.53a7.34,7.34,0,0,1-7.34-7.34V337.59A0,0,0,0,1,104.19,337.59Z"/><path class="cls-26" d="M96.45,337.59H150.7a0,0,0,0,1,0,0V511.65a7.34,7.34,0,0,1-7.34,7.34H103.79a7.34,7.34,0,0,1-7.34-7.34V337.59A0,0,0,0,1,96.45,337.59Z"/><rect class="cls-27" x="96.45" y="343.58" width="54.25" height="9.99"/><path class="cls-16" d="M314.32,337.59h54.25a0,0,0,0,1,0,0V511.65a7.34,7.34,0,0,1-7.34,7.34H321.66a7.34,7.34,0,0,1-7.34-7.34V337.59A0,0,0,0,1,314.32,337.59Z"/><path class="cls-26" d="M306.59,337.59h54.25a0,0,0,0,1,0,0V511.65a7.34,7.34,0,0,1-7.34,7.34H313.92a7.34,7.34,0,0,1-7.34-7.34V337.59A0,0,0,0,1,306.59,337.59Z"/><rect class="cls-27" x="306.59" y="343.58" width="54.25" height="9.99"/><rect class="cls-26" x="74.03" y="326.5" width="287.71" height="17.08" rx="4.65"/><rect class="cls-16" x="198.67" y="326.5" width="204.55" height="17.08" rx="4.65"/></g><path class="cls-9" d="M227.23,196.18c-4.79-10.78-16.43-15.52-21-15.52a17.18,17.18,0,0,0-9.76,3.57l12.93,40.68,20,6.22c4.11-11.77,3.06-20.83-.55-31,7.85,15.17,2.21,31.52,2.13,31.72l.68.25C231.67,231.91,238.36,212.53,227.23,196.18Z"/><path class="cls-13" d="M206.05,259.34c-12.27,0-18.48-14.62-18.48-14.62l9.79-19.81H214Z"/><polygon class="cls-11" points="209.93 242.47 200.89 231.19 213.96 224.91 209.93 242.47"/><path class="cls-13" d="M224.7,214.31c-.24,10.33-3.56,21.8-10.22,22.52-10.28,1.1-25.67-11.34-26.58-21.64s-1.8-27.41,12.16-28.65C220.36,184.75,225,200.41,224.7,214.31Z"/><path class="cls-14" d="M222.53,199.29s2.31-12.93-12.89-14.93c-6.8-6-20.63-2.63-27.18,1.83a27.24,27.24,0,0,0-5.7,3.83c-12.23,10.67-13.35,30.2-13.36,30.4l.72,0c0-.19,1.12-19.42,13.12-29.89a27,27,0,0,1,2.35-1.83c-7.92,8.46-14.12,20.84-13.81,33.6,13,14.54,32.67,12,32.67,12-4.3-8.58-3.47-17.48-2.66-21.83,8.77-2.14,14.85-5.83,18.09-11a15.83,15.83,0,0,0,2.49-9.29C217.18,192.41,219.51,193.46,222.53,199.29Zm-9.27,1.82c-2.49,4-6.75,7-12.69,9.18,6-2.66,12.18-7.47,15-16.17A15.14,15.14,0,0,1,213.26,201.11Z"/><rect class="cls-28" x="187.35" y="196.89" width="2.92" height="15.64"/><rect class="cls-29" x="185.4" y="196.89" width="2.92" height="15.64"/><path class="cls-28" d="M191.93,200.41v-7.57a9.8,9.8,0,0,1,4.69-8.13c1.44-.87,5.55-3.43,5.55-3.43s-7.12,0-10.28,1.22l-.84.32a8.67,8.67,0,0,0-5.55,8.08v9.51Z"/><path class="cls-29" d="M190,200.41v-7.57a8.65,8.65,0,0,1,4.68-7.69l7.5-3.87-2.3-.19a22.57,22.57,0,0,0-9.93,1.41l-.83.32a8.65,8.65,0,0,0-5.55,8.08v9.51Z"/><circle class="cls-29" cx="188.16" cy="216.13" r="8.27"/><circle class="cls-30" cx="186.53" cy="216.13" r="8.27"/><circle class="cls-29" cx="186.53" cy="216.13" r="5.19"/><circle class="cls-30" cx="186.53" cy="216.13" r="2.36"/><polygon class="cls-30" points="215.94 232.68 196.26 230.42 185.99 216.53 187.07 215.73 197 229.15 216.1 231.35 215.94 232.68"/><rect class="cls-29" x="210.68" y="229.73" width="6.56" height="3.63" rx="0.64"/><g id="plant"><path class="cls-31" d="M86.35,409.87c-.55,2.61.26,5.72-.2,8.41-.57,3.37-2.71,4.34-4.16,6.46-1.71,2.52-2.5,7.23-1.87,11.25A59.9,59.9,0,0,0,82,442.85a16.06,16.06,0,0,1,.51,7.45c-.81,3.58-5.16,6.35-5.16,21.52,0,13.84,9.88,19.22,12.68,22.61V404.68l-1.26,1.23A7.33,7.33,0,0,0,86.35,409.87Z"/><path class="cls-32" d="M97.89,442.85A57.92,57.92,0,0,0,99.76,436c.63-4-.15-8.73-1.87-11.25-1.45-2.12-3.58-3.09-4.16-6.46-.46-2.69.36-5.8-.2-8.41a7.32,7.32,0,0,0-2.4-4l-1.27-1.23v89.75c2.8-3.39,12.68-8.77,12.68-22.61,0-15.17-4.35-17.94-5.16-21.52A16.06,16.06,0,0,1,97.89,442.85Z"/><path class="cls-33" d="M102.88,459.88c-.75,1-.41,2.47-1.09,3.5-.84,1.3-2.72,1.25-4.15,1.83a4.59,4.59,0,0,0-2.79,4.34,16.62,16.62,0,0,0,.8,3.29,3.76,3.76,0,0,1-.4,3.25c-1.06,1.34-5,1.57-6.63,8-1.52,5.84,6.07,10.24,8,12.27l9.85-37.84-1.18.25A3.92,3.92,0,0,0,102.88,459.88Z"/><path class="cls-34" d="M108.07,465c-.09-1.23.93-2.37.76-3.59a3.91,3.91,0,0,0-1.56-2.19l-.92-.79L96.5,496.29c2.69-.83,11.47-1,13-6.8,1.66-6.39-1.63-8.5-1.91-10.19a3.78,3.78,0,0,1,1.24-3,15.91,15.91,0,0,0,2.3-2.49,4.6,4.6,0,0,0-.31-5.14C109.84,467.43,108.18,466.56,108.07,465Z"/><path class="cls-35" d="M95.31,500.07c-3-4.42-21.63-7.91-21.63-7.91s6.16,6.61,6.16,11a19.58,19.58,0,0,1-1.06,5,10,10,0,0,0,9.53,13h.58c1.2-2.55,2.37-5.56,2.37-7.62C91.26,509.39,98.25,504.48,95.31,500.07Z"/><path class="cls-36" d="M114.12,508.24a19.58,19.58,0,0,1-1.06-5c0-4.44,6.16-11,6.16-11H73.68s18.68,3.49,21.63,7.91-4,9.32-4,13.59c0,2.06-1.17,5.07-2.37,7.62h15.7A10,10,0,0,0,114.12,508.24Z"/></g><g id="plant-2" data-name="plant"><path class="cls-37" d="M501.26,424.64c.73,4-2,15.13,0,18.64s5.77,11.18,2.49,18-7.34,25.64,15,26.2,18.53-24.28,16-29.14-5.87-9.49-7-19.54-2.15-13.56-14.46-22.82-14.12-11.07-16.94-7.57S499.8,416.5,501.26,424.64Z"/><path class="cls-38" d="M509.74,428.25s18.14,38.41,6.47,82"/><line class="cls-38" x1="517" y1="451.26" x2="506.8" y2="440.34"/><line class="cls-38" x1="519.09" y1="463.48" x2="525.44" y2="452.99"/><line class="cls-38" x1="520.12" y1="478.59" x2="507.25" y2="467.18"/><path class="cls-39" d="M404.88,482.31s10-3.5,11.19-11.09,3-18.66-1.85-17.69S399.63,466.27,404.88,482.31Z"/><path class="cls-39" d="M395.65,491.45s3.3-10.5-2.34-14.88S369,473.75,395.65,491.45Z"/><path class="cls-39" d="M401.87,499.42s20-1.65,22.66-10.6S406.05,487.37,401.87,499.42Z"/><path class="cls-38" d="M412.37,461.89a154.15,154.15,0,0,1-7.49,20.42c-4.37,9.33-8.27,26.74-8.27,26.74s-1.45-10.41,22-19.35"/><path class="cls-38" d="M390.11,481.53a40.86,40.86,0,0,1,8,21.22"/></g></g></g></svg>
