<?xml version="1.0" encoding="utf-8"?>
<svg version="1.1" id="Layer_1" xmlns="http://www.w3.org/2000/svg"
	xmlns:xlink="http://www.w3.org/1999/xlink" x="0px" y="0px"
	viewBox="0 0 167 199.8" style="enable-background:new 0 0 167 199.8;" xml:space="preserve">
<style type="text/css">
	.st0{fill:#CECECE;}
	.st1{fill-rule:evenodd;clip-rule:evenodd;fill:#0A1B51;}
	.st2{fill-rule:evenodd;clip-rule:evenodd;fill:url(#SVGID_1_);}
	.st3{fill-rule:evenodd;clip-rule:evenodd;fill:#CFD4E7;}
	.st4{fill-rule:evenodd;clip-rule:evenodd;fill:url(#SVGID_00000084493934606704060400000004373652045237259925_);}
</style>
<g>
	<path class="st0" d="M79.7,115.3l-59.6,35.1c-2.6,1.5-2.6,5.3,0,6.9l59.6,35.5c1.2,0.7,2.8,0.8,4,0l61.9-35.5c2.7-1.5,2.7-5.4,0-7
		l-61.9-35.1C82.4,114.5,80.9,114.5,79.7,115.3z"/>
</g>
<path class="st1" d="M79.9,84.9c1.9,1.1,5,1.1,6.9,0l62.8-36.2c1.9-1.1,1.9-2.9,0-4L86.8,8.6c-1.9-1.1-5-1.1-6.9,0L17.1,44.7
	c-1.9,1.1-1.9,2.9,0,4L79.9,84.9z M71.6,56.8c0.5,0.9,1.9,1.4,3.5,1.4h16.4c1.6,0,3-0.6,3.5-1.4l8.4-14.4c0.4-0.8,0.1-1.6-0.9-2.2
	l-16.6-9.5c-1.4-0.8-3.8-0.8-5.2,0l-16.6,9.5c-1,0.6-1.3,1.4-0.9,2.2L71.6,56.8z"/>
<linearGradient id="SVGID_1_" gradientUnits="userSpaceOnUse" x1="111.5966" y1="975.6985" x2="83.3246" y2="923.2534" gradientTransform="matrix(1 0 0 1 0 -876.5892)">
	<stop  offset="0" style="stop-color:#0A1B51"/>
	<stop  offset="1" style="stop-color:#951F5E"/>
</linearGradient>
<path class="st2" d="M79.9,84.9c1.9,1.1,5,1.1,6.9,0l62.8-36.2c1.9-1.1,1.9-2.9,0-4L86.8,8.6c-1.9-1.1-5-1.1-6.9,0L17.1,44.7
	c-1.9,1.1-1.9,2.9,0,4L79.9,84.9z M71.6,56.8c0.5,0.9,1.9,1.4,3.5,1.4h16.4c1.6,0,3-0.6,3.5-1.4l8.4-14.4c0.4-0.8,0.1-1.6-0.9-2.2
	l-16.6-9.5c-1.4-0.8-3.8-0.8-5.2,0l-16.6,9.5c-1,0.6-1.3,1.4-0.9,2.2L71.6,56.8z"/>
<path class="st3" d="M76.9,99.4c0-2.2-1.6-4.9-3.5-6L10.6,57.3c-1.9-1.1-3.5-0.2-3.5,2v72.3c0,2.2,1.6,4.9,3.5,6l62.8,36.2
	c1.9,1.1,3.5,0.2,3.5-2V99.4z M41.3,103.4c-1-2.6-3.5-4-4.5-2.6l-9,12.7c-1,1.4,0.2,4.6,2.2,5.8l17.9,10.3c2,1.2,3.3-0.6,2.2-3.2
	L41.3,103.4z"/>
<linearGradient id="SVGID_00000139973181591764682180000012670811257794235293_" gradientUnits="userSpaceOnUse" x1="8.5983" y1="976.8872" x2="95.8062" y2="1016.7271" gradientTransform="matrix(1 0 0 1 0 -876.5892)">
	<stop  offset="0" style="stop-color:#951F5E"/>
	<stop  offset="1" style="stop-color:#0A1B51"/>
</linearGradient>
<path style="fill-rule:evenodd;clip-rule:evenodd;fill:url(#SVGID_00000139973181591764682180000012670811257794235293_);" d="
	M76.9,99.4c0-2.2-1.6-4.9-3.5-6L10.6,57.3c-1.9-1.1-3.5-0.2-3.5,2v72.3c0,2.2,1.6,4.9,3.5,6l62.8,36.2c1.9,1.1,3.5,0.2,3.5-2V99.4z
	 M41.3,103.4c-1-2.6-3.5-4-4.5-2.6l-9,12.7c-1,1.4,0.2,4.6,2.2,5.8l17.9,10.3c2,1.2,3.3-0.6,2.2-3.2L41.3,103.4z"/>
<path class="st1" d="M159.1,59.3c0-2.2-1.5-3.1-3.5-2L92.9,93.4c-1.9,1.1-3.5,3.8-3.5,6v72.3c0,2.2,1.5,3.1,3.5,2l62.8-36.2
	c1.9-1.1,3.5-3.8,3.5-6L159.1,59.3L159.1,59.3z M124.3,130.3c7.1-4.1,12.8-14,12.8-22.1s-5.7-11.4-12.8-7.4
	c-7.1,4.1-12.8,14-12.8,22.1S117.2,134.3,124.3,130.3z"/>
</svg>
