<svg xmlns="http://www.w3.org/2000/svg" xmlns:xlink="http://www.w3.org/1999/xlink" viewBox="0 0 720 504"><defs><style>.cls-1{isolation:isolate;}.cls-2{fill:#fff;}.cls-3{fill:#f55662;}.cls-4,.cls-44{opacity:0.3;}.cls-17,.cls-4,.cls-44{mix-blend-mode:multiply;}.cls-5{fill:url(#linear-gradient);}.cls-6{fill:#fe845a;}.cls-27,.cls-7,.cls-9{fill:none;stroke:#231f20;stroke-linecap:round;stroke-miterlimit:10;}.cls-7{stroke-width:1.23px;}.cls-8{fill:url(#linear-gradient-2);}.cls-9{stroke-width:1.17px;}.cls-10{fill:url(#linear-gradient-3);}.cls-11{fill:#c7ccd1;}.cls-12{fill:#403881;}.cls-13{fill:#fca080;}.cls-14{fill:#e0e6ee;}.cls-15{fill:#232059;}.cls-16{fill:#201851;}.cls-17{opacity:0.5;}.cls-18{fill:#1150bf;}.cls-19{fill:#094081;}.cls-20{fill:#073868;}.cls-21{fill:#f59d80;}.cls-22{fill:#d07a62;}.cls-23{fill:#1e194f;}.cls-24{fill:url(#linear-gradient-4);}.cls-25{fill:#3d86fa;}.cls-26{fill:#1351be;}.cls-27{stroke-width:1.1px;}.cls-28{fill:#413b8a;}.cls-29{fill:url(#linear-gradient-5);}.cls-30{fill:url(#linear-gradient-6);}.cls-31{fill:url(#linear-gradient-7);}.cls-32{fill:#231f20;}.cls-33{fill:url(#linear-gradient-8);}.cls-34{fill:url(#linear-gradient-9);}.cls-35{fill:url(#linear-gradient-10);}.cls-36{fill:url(#linear-gradient-11);}.cls-37{fill:url(#linear-gradient-12);}.cls-38{fill:#fda181;}.cls-39{fill:#e1e7ef;}.cls-40{fill:#403882;}.cls-41{fill:#1150be;}.cls-42{fill:#094082;}.cls-43{fill:url(#linear-gradient-13);}.cls-45{fill:#d17a62;}</style><linearGradient id="linear-gradient" x1="553.61" y1="64.53" x2="614.75" y2="214.07" gradientUnits="userSpaceOnUse"><stop offset="0.05" stop-color="#fbd15b"/><stop offset="1" stop-color="#f9a45a"/></linearGradient><linearGradient id="linear-gradient-2" x1="602.04" y1="218.4" x2="655.31" y2="414.44" gradientUnits="userSpaceOnUse"><stop offset="0" stop-color="#ff9d5d"/><stop offset="0.08" stop-color="#ff985d"/><stop offset="0.18" stop-color="#ff8a5c"/><stop offset="0.28" stop-color="#ff725b"/><stop offset="0.28" stop-color="#ff725b"/><stop offset="0.37" stop-color="#ff825b"/><stop offset="0.49" stop-color="#ff8f5c"/><stop offset="0.64" stop-color="#ff965c"/><stop offset="1" stop-color="#ff985c"/></linearGradient><linearGradient id="linear-gradient-3" x1="66.88" y1="64.53" x2="128.02" y2="214.07" xlink:href="#linear-gradient"/><linearGradient id="linear-gradient-4" x1="454.49" y1="501.92" x2="368.74" y2="385.42" gradientUnits="userSpaceOnUse"><stop offset="0" stop-color="#1252c4"/><stop offset="1" stop-color="#3f87fe"/></linearGradient><linearGradient id="linear-gradient-5" x1="734.06" y1="484.44" x2="767.6" y2="329.47" gradientTransform="matrix(-1, 0, 0, 1, 856.88, 0)" xlink:href="#linear-gradient-4"/><linearGradient id="linear-gradient-6" x1="658.13" y1="464.45" x2="795.23" y2="464.45" gradientTransform="matrix(-1, 0, 0, 1, 856.88, 0)" gradientUnits="userSpaceOnUse"><stop offset="0" stop-color="#ff9d5c"/><stop offset="1" stop-color="#ffc961"/></linearGradient><linearGradient id="linear-gradient-7" x1="-205.8" y1="471.79" x2="-198.21" y2="444.79" gradientTransform="matrix(-1, 0, 0, 1, 252, 0)" gradientUnits="userSpaceOnUse"><stop offset="0" stop-color="#f8a034"/><stop offset="1" stop-color="#ffc546"/></linearGradient><linearGradient id="linear-gradient-8" x1="-207.32" y1="472.78" x2="-216.74" y2="453.26" gradientTransform="matrix(-1, 0, 0, 1, 252, 0)" gradientUnits="userSpaceOnUse"><stop offset="0" stop-color="#fcb72c"/><stop offset="1" stop-color="#ffcf44"/></linearGradient><linearGradient id="linear-gradient-9" x1="-195.32" y1="474.01" x2="-191.96" y2="461.47" xlink:href="#linear-gradient-8"/><linearGradient id="linear-gradient-10" x1="-384.69" y1="467.88" x2="-378.62" y2="446.25" gradientTransform="translate(1025.24)" xlink:href="#linear-gradient-7"/><linearGradient id="linear-gradient-11" x1="-385.91" y1="468.67" x2="-393.46" y2="453.03" gradientTransform="translate(1025.24)" xlink:href="#linear-gradient-8"/><linearGradient id="linear-gradient-12" x1="-376.3" y1="469.66" x2="-373.61" y2="459.61" gradientTransform="translate(1025.24)" xlink:href="#linear-gradient-8"/><linearGradient id="linear-gradient-13" x1="285.38" y1="277.13" x2="205.29" y2="163.87" gradientTransform="matrix(1, 0, 0, 1, 0, 0)" xlink:href="#linear-gradient-7"/></defs><g class="cls-1"><g id="Layer_2" data-name="Layer 2"><g id="Layer_1-2" data-name="Layer 1"><rect class="cls-2" width="720" height="504"/><g id="chair"><path class="cls-3" d="M287.77,469.08l-35.26-99.86h9.71c2.3,0,4.18-1.17,4.18-2.61v-3.37c0-1.44-1.88-2.61-4.18-2.61H139.12c-2.3,0-4.18,1.17-4.18,2.61v3.37c0,1.44,1.88,2.61,4.18,2.61h12.5l-35.26,99.86c-.47,1.34.9,2.68,3,3s4.29-.56,4.76-1.9L159.8,369.22h84.53L280,470.16c.47,1.34,2.61,2.2,4.76,1.9h0C286.87,471.76,288.24,470.42,287.77,469.08Z"/><g class="cls-4"><polygon points="252.51 369.22 244.33 369.22 254.01 396.63 262.26 396.82 252.51 369.22"/><polygon points="151.62 369.22 142.83 394.11 150.95 394.3 159.8 369.22 151.62 369.22"/></g></g><g id="trees"><ellipse class="cls-5" cx="592.6" cy="159.9" rx="42.48" ry="88.52"/><path class="cls-6" d="M615.52,85.35c6.66,15.64,10.71,36.22,10.71,58.77,0,48.89-19,88.52-42.48,88.52-8.44,0-16.3-5.12-22.91-14,7.78,18.25,19.12,29.75,31.76,29.75,23.46,0,42.48-39.63,42.48-88.52C635.08,128.6,627.28,101.09,615.52,85.35Z"/><g id="TREE"><line class="cls-7" x1="593.18" y1="106.98" x2="593.18" y2="468.22"/><line class="cls-7" x1="593.18" y1="146.98" x2="609.74" y2="126.77"/><line class="cls-7" x1="593.18" y1="188.53" x2="609.74" y2="168.33"/><line class="cls-7" x1="593.18" y1="170.36" x2="576.63" y2="150.16"/><line class="cls-7" x1="593.18" y1="207.44" x2="576.63" y2="187.23"/><line class="cls-7" x1="593.18" y1="231.64" x2="609.74" y2="211.43"/></g><g id="tree-2" data-name="tree"><path class="cls-8" d="M669.76,324.27c-8-13.73,8.22-27.21,2.71-41-2.84-7.11-11.19-10.29-15.68-16.48-3.6-4.95-4.4-11.34-4.9-17.44s-.87-12.45-3.84-17.8a16.08,16.08,0,0,0-3.06-3.93c-3.31-3.14-7.9-4.9-12.13-3.46-5.38,1.84-8.05,7.76-9.74,13.18a125.22,125.22,0,0,0-4.23,18.31c-.91,5.91-1.55,12.27-5.37,16.86-4.19,5.05-11.27,6.78-15.94,11.39a17.39,17.39,0,0,0-4.84,15c.8,4.75,3.54,8.92,5.5,13.32s3.08,9.73.68,13.91c-2.11,3.68-6.38,5.5-9.34,8.55-3.78,3.89-5.19,9.69-4.51,15.08s3.24,10.38,6.47,14.74a51.05,51.05,0,0,0,16.36,14.22c9.53,5.2,21.33,7.81,27.46,16.78,4.78-10.34,22-17.52,28.7-23.23,7-6,13.47-14.09,14.82-23.52C680.39,338.2,674.62,332.56,669.76,324.27Z"/></g><line class="cls-9" x1="636.11" y1="309.59" x2="636.11" y2="467.18"/><line class="cls-9" x1="636.11" y1="360.87" x2="658.81" y2="338.17"/><line class="cls-9" x1="636.11" y1="332.38" x2="616.6" y2="312.87"/><ellipse class="cls-10" cx="105.87" cy="159.9" rx="42.48" ry="88.52"/><path class="cls-6" d="M128.78,85.35c6.67,15.64,10.72,36.22,10.72,58.77,0,48.89-19,88.52-42.48,88.52-8.44,0-16.3-5.12-22.91-14,7.78,18.25,19.12,29.75,31.76,29.75,23.46,0,42.48-39.63,42.48-88.52C148.35,128.6,140.55,101.09,128.78,85.35Z"/><g id="TREE-3" data-name="TREE"><line class="cls-7" x1="106.45" y1="106.98" x2="106.45" y2="468.22"/><line class="cls-7" x1="106.45" y1="146.98" x2="123.01" y2="126.77"/><line class="cls-7" x1="106.45" y1="188.53" x2="123.01" y2="168.33"/><line class="cls-7" x1="106.45" y1="170.36" x2="89.89" y2="150.16"/><line class="cls-7" x1="106.45" y1="207.44" x2="89.89" y2="187.23"/><line class="cls-7" x1="106.45" y1="231.64" x2="123.01" y2="211.43"/></g></g><g id="man"><ellipse class="cls-11" cx="556.31" cy="471.57" rx="64.23" ry="3.35"/><g id="legs"><path class="cls-12" d="M525.91,455.54c0-.87-4.18-1.24-4.18-1.24S504.63,460,501,462c-2.41,1.32-3.2,5-3.46,7.28a1.74,1.74,0,0,0,1.7,1.92c7.93.12,39,.56,39.33,0s-.55-14.43-.55-14.43S525.91,456.42,525.91,455.54Z"/><path class="cls-13" d="M522.06,446.81l-.33,7.49s4.18.37,4.18,1.24,12.15,1.18,12.15,1.18l.55-8Z"/><path class="cls-14" d="M497.58,469.26a1.74,1.74,0,0,0,1.7,1.92c7.93.12,39,.56,39.33,0a14.64,14.64,0,0,0,0-2.69l-31.6.2-.38-9A58.35,58.35,0,0,0,501,462C498.63,463.3,497.84,467,497.58,469.26Z"/><path class="cls-12" d="M612.13,444.69s-9,3.49-9.45,3.14-2.58.8-2.58.8-.31,4.56-1,5.67-5.87,6.67-10.62,8.57c-3.36,1.35-4.4,5.07-4.71,7.14a1.26,1.26,0,0,0,1.25,1.44h12.86c2.43,0,22.35-13.61,22.65-15.33S612.13,444.69,612.13,444.69Z"/><path class="cls-13" d="M602.68,447.83c.45.35,9.45-3.14,9.45-3.14l-2.93-7.18-12.73,5.68,3.63,5.44S602.22,447.47,602.68,447.83Z"/><path class="cls-14" d="M583.76,470a1.26,1.26,0,0,0,1.25,1.44h12.86c2.43,0,22.35-13.61,22.65-15.33a3,3,0,0,0-.59-1.58c-4.34,3.56-20.18,13.6-21,14s-4.52,0-4.52,0c.14-4.18-3.46-7-3.46-7h0a15.24,15.24,0,0,1-2.47,1.27C585.11,464.22,584.07,467.94,583.76,470Z"/><path class="cls-12" d="M561.52,284.21s5.71,13.85,2.27,28.82c0,0,13.35,51.27,15.17,53.69s9.31,10.42,11.23,16.69,19,54.1,19,54.1l-13,6.78S564.51,390,561.52,384.93s-17.14-30.14-17.14-30.14-2.73,16.28-2.43,17.5-1.16,5,0,6.17,2,10,1.54,19-4.86,51.27-4.86,51.27-14.46,1.72-17.49-1c0,0-5.6-70.34-6-75.06s0-10.12-.14-12.14-5.59-69.64-5.59-69.64Z"/><path class="cls-15" d="M534,294c.08-2.21.12-4.3.12-6.29l-24.7,3.16s5.46,67.62,5.59,69.64-.26,7.42.14,12.14,6,75.06,6,75.06c-2.43-34.88,8.7-55.31,10.72-67.85s12.54-25.08,12.54-25.08-18.61-35.93-21.31-44.56S534,294,534,294Z"/></g><g id="body"><path class="cls-16" d="M467.39,141,360.86,124.07a8.31,8.31,0,0,0-9.51,6.9l-4.71,29.69a34.69,34.69,0,0,0,.13,5.24l3.84.58c.21,0,.44.08.66.1h0a5.24,5.24,0,0,0,2.15-.3,22,22,0,1,1-7.86,36.4,3.45,3.45,0,0,0-2.08-1h0l-4-.61-5,36.22a8.2,8.2,0,0,0,6.81,9.38l30.43,4.83a3.83,3.83,0,0,1,2.52,6A22,22,0,0,0,394,292.2c7.43-.53,15.83-6.77,18.52-13.72a22.18,22.18,0,0,0,.5-15,3.71,3.71,0,0,1,4.12-4.8l30.62,4.86a8.18,8.18,0,0,0,9.37-6.8L474,150.15A8,8,0,0,0,467.39,141Z"/><path class="cls-3" d="M408.54,277.89a22.18,22.18,0,0,0,.5-14.95,3.71,3.71,0,0,1,4.12-4.8L443.79,263a8.19,8.19,0,0,0,9.37-6.8l16.93-106.65a8,8,0,0,0-6.64-9.15L356.92,123.48a8.31,8.31,0,0,0-9.51,6.9l-4.71,29.69a5.12,5.12,0,0,0,6.78,5.62,21.95,21.95,0,1,1-7.86,36.39,3.51,3.51,0,0,0-5.91,2l-5.19,32.68a8.19,8.19,0,0,0,6.81,9.37l30.43,4.83a3.84,3.84,0,0,1,2.52,6A22,22,0,0,0,390,291.61C397.45,291.07,405.85,284.84,408.54,277.89Z"/><path class="cls-17" d="M439,236.83c3.8,2,14.91,4,20.48,4.86l1.36-8.54-30.54-7S433.85,234.1,439,236.83Z"/><path class="cls-18" d="M560,258.12c.61-7.69,2.23-46.18,1.28-52.38s-12.3-13.4-12.3-13.4-18.44,4.45-25.48,8.2c0,0-23,6.68-27.61,6.41-3.42-.2-21.11-4.12-29.86-6.1l-2.46,15.49c9.45,3,28,8.58,34.61,8.68,1.63,0,3.93-.13,6.59-.38l-3.76,2a100.85,100.85,0,0,0-23.59,0,101.55,101.55,0,0,1-15.58.57,40.33,40.33,0,0,1-5.59-.57l-1.89,11.06,5.68.89c11.33,1.74,36.34,5.38,44.07,4.94a38.42,38.42,0,0,0,5.9-1c.11,7.48.65,14.19.44,16.78-.4,5-1,31.56-1,31.56s6.07,3.44,17.8,3.82,34.33-10.49,34.33-10.49S559.34,265.8,560,258.12Z"/><path class="cls-19" d="M512,221l17.8-9.1s-5.8-3.78-4.66-6.81,6.78-5.51,6.78-5.51l2.95-3.41a73.33,73.33,0,0,0-11.44,4.33C521,202.7,514,214,512,221Z"/><path class="cls-19" d="M527.93,280.37c2.56-1-4.59-2.23-9.55-3.24s-4.88-18.67-3.53-23.26,31-22.35,31-22.35c-2,.91-35.93,11-35.93,11,.11,7.48.65,14.19.44,16.78-.4,5-1,31.56-1,31.56s6.07,3.44,17.8,3.82A31.61,31.61,0,0,0,534,294C526.92,294,525.37,281.38,527.93,280.37Z"/><path class="cls-20" d="M514.72,203c-7.86,3.62-18.59,8.38-24.34,7.73-7.33-.82-18.6-3.61-25.12-5.32l-1.74,11c9.45,3,28,8.58,34.61,8.68,1.63,0,3.93-.13,6.59-.38L512,221s5.26-14,11.43-20.5C523.44,200.54,519.59,201.66,514.72,203Z"/><path class="cls-21" d="M456.2,226.68a19.73,19.73,0,0,1-2.41-.32c-.72-.2-3.06-3.33-4.3-4s-5.21-2.09-6.06-2.61-.45,1.44,0,2.15a16.62,16.62,0,0,0,2,2.09l-5.93-1.24s-4.11-3.52-5.8-3.91-1.69.91-1.69.91-1.5-1-2.15-.45.91,1.89.91,1.89-1-.66-1.45,0,2.05,3.75,2.05,3.75-1.95-.12-.73,1.77a48.19,48.19,0,0,0,4.49,5.56,29.32,29.32,0,0,0,7.62,4c2.3.64,11.6,1.4,11.6,1.4Z"/></g><g id="head"><path class="cls-21" d="M525.06,160.38s-3.64,27.1,0,28.37,8.09,0,8.09,0-1.26,10-1.21,10.87,16.13-3.9,17-7.28l-1.57-18.56s5.46-9,.71-12.08S531.18,153.66,525.06,160.38Z"/><polygon class="cls-22" points="533.15 188.75 538.72 186.42 532.78 191.77 533.15 188.75"/><path class="cls-22" d="M542.81,175.35a3.14,3.14,0,0,0,4.55-1.57S547.08,180.38,542.81,175.35Z"/><path class="cls-22" d="M528.83,162.88c1.67-2.07,3-1.78,3.19-.76s.93,1.88,3.28,1.22a5.18,5.18,0,0,1,4.36,1.07,13.59,13.59,0,0,0,2.1-5.78c-5.53-2-12.52-2.84-16.7,1.75,0,0-.21,1.57-.47,4A4.76,4.76,0,0,0,528.83,162.88Z"/><path class="cls-12" d="M556.55,163.57c-.34-2.56-2-2.53-2-2.53s2.39-6.27-.77-8a22.07,22.07,0,0,0-7.89-1.88s-9.51-4.92-11.6-3.78c0,0-4-4-8.36-2.56s-10.4,4.3-6.13,14.22,9.17-.13,11.66,1.76.61,2.76,3.78,2.22,4.38,1.35,4.38,1.35-1.59,8,.77,7.62,4.12-4.86,6.54-5.09.39,6.84.39,6.84-1.9,4.08-1.33,4.85a3.64,3.64,0,0,0,1.83,1.08L554,168.25S556.88,166.13,556.55,163.57Z"/><path class="cls-23" d="M540.43,172c2.36-.41,4.12-4.86,6.54-5.09s.39,6.84.39,6.84-1.9,4.08-1.33,4.85a3.64,3.64,0,0,0,1.83,1.08L554,168.25s2.93-2.12,2.6-4.68-2-2.53-2-2.53,2.5.54.68,3.37-6.07,0-6.07,0a1.46,1.46,0,0,1-2,0s-4.45,3-7.58,0C539.66,164.41,538.07,172.43,540.43,172Z"/></g></g><g id="puzzle_3" data-name="puzzle 3"><path class="cls-16" d="M446.85,348H416.78a5.12,5.12,0,0,0-4.48,7.58c1.82,3.29-4.58,31.78-18,32.52a22,22,0,0,1-19.14-34.57,3.5,3.5,0,0,0-2.85-5.53h-33.1a8.19,8.19,0,0,0-8.18,8.19s-3,35.52-5.55,34.25a21.76,21.76,0,0,0-8.66-2.28h0l-1.11,0-5.83-.09L309,432l4.73,0c4.5-.13,8.4-.55,11.87-2.32A3.72,3.72,0,0,1,331,433v31a8.18,8.18,0,0,0,8.18,8.18h108a8,8,0,0,0,8-8V356.35A8.3,8.3,0,0,0,446.85,348Z"/><path class="cls-24" d="M304.93,431.46a22.14,22.14,0,0,0,14.84-1.85,3.71,3.71,0,0,1,5.39,3.32v31a8.19,8.19,0,0,0,8.19,8.19h108a8,8,0,0,0,8-8V356.25A8.31,8.31,0,0,0,441,348H411a5.11,5.11,0,0,0-4.48,7.58,22,22,0,1,1-37.18-2,3.5,3.5,0,0,0-2.86-5.53H333.35a8.19,8.19,0,0,0-8.19,8.19V387a3.83,3.83,0,0,1-5.55,3.43,22,22,0,0,0-31.13,24.94C290.17,422.58,297.64,429.89,304.93,431.46Z"/></g><g id="plants"><path class="cls-25" d="M246.45,440.58c1.4-1.61,7.86-4.08,10.58-8.06s12.14-17.86,19.33-15.15-6.22,12.43-10.2,17.29-4.31,18.94-14.83,18.94S243.34,444.18,246.45,440.58Z"/><path class="cls-26" d="M245.83,404.36s5,.15,4.57,7.24-2.38,12.38-2,16.16,3.84,18.31-2.57,19.28-13.79-1.21-10.58-11.65S235.54,402.32,245.83,404.36Z"/><path class="cls-27" d="M244.28,412.81s-4.66,42.86-4.66,57.55"/><path class="cls-27" d="M241,470.36s2.7-26.35,32-49.13"/><g id="plant"><path class="cls-6" d="M55.54,376c1.49,37.9,25.34,98.74,48.35,91.62,6.06-1.88-1.73-30.12-24-55C63.8,394.69,59.58,381.54,55.54,376Z"/><path class="cls-16" d="M123.49,462.91c-.14,2.39,33,5.43,48.3-19.57,12-19.47,19.38-21.22,25.78-24.67C154,417.88,123.86,456.66,123.49,462.91Z"/><path class="cls-28" d="M135.33,411.47c-.21-2,1.86-16.68-.35-28.17-4.53,4.44-21.35,61.7-20.82,71,.2,3.43-1.81,12.86,5.37,14.56,7.57,1.8,21.55-16.49,26.5-29.1,16.38-41.7,4.6-39.94,18.25-63.66C158.85,380,138.19,404,135.33,411.47Z"/><path class="cls-6" d="M144.08,395.33c-2.75,4-4,8.71-6.7,12.61-2.17,3.15-1.95,7.1-3.49,10.13-1.66,3.25-4.56,4.92-4.73,9.49-.08,2.13.46,3.9.27,5.83-.24,2.4-1.25,4.62-1.28,7.19,0,1.79.53,3.5.58,5.21.13,4.8-7.48,12.66-1.38,17-.33,4.05.41,5.49,2.5,5.55,4.46.13,4.29-4.42,5.17-6.92,1-2.89,4.28-4.77,4.59-8.74.16-2-1-4.45-.8-6.31.17-1.4,1.46-2.17,2.2-3.35,1.91-3,2-6.53,1.79-10-.12-2-1.72-5.26-1.47-7.09.48-3.51,4-4.4,3-9.46-.33-1.53-1.64-3.38-1.6-4.95s1.07-2.63,1.6-4.06C145.77,403.53,144.13,399.4,144.08,395.33Z"/><path class="cls-29" d="M127.11,453.37c-4.27-.17-9.66,3.86-12.5,8.31.06-2.79.2-5.59.39-8.4,3-2.77,8.2-2,11.21-5.55,3.18-3.76,0-8-4.5-5.73-2.19,1.1-4.74,4.77-6.44,7.8.16-2,.37-4.77.54-6.76.14-1.74.25-3.47.35-5.19,3.46-2.16,10.87-2,11.65-7.72.55-4-3.43-6.79-6.64-3.52a29.32,29.32,0,0,0-4.85,7.23c.1-3.22.09-6.43,0-9.62,3.8-3,12.48-2.12,14.17-7.73,1.38-4.58-4.45-5.64-7.77-3.38s-4.92,6.22-6.46,9.89c-.13-2.38-.33-4.75-.61-7.13,2.86-2.91,8.83-4.88,10-9.62s-2.56-9.69-7-5c-2.32,2.48-3.25,6.33-3.69,10-.43-2.61-1-5.21-1.58-7.78a32.61,32.61,0,0,1,2.81-5.06c1.42-2,3.51-4,3.28-6.61-.41-4.49-3.86-2.2-5.42.74a17.27,17.27,0,0,0-1.56,7.42c-.78-2.87-2.07-7.21-3.07-10,1.51-4.6,12.91-13.46,4.67-14-3.9-.27-5.47,7.42-5.57,12-.59-1.52-2.07-5-2.18-5.27,1.36-3.77,8-15.36,2.36-16-4.48-.51-4.44,7-4.08,10.65.05.46.08,1.14.14,1.87-1.07-2.29-2.21-4.58-3.44-6.84a21.17,21.17,0,0,0,2.56-5.2c.43-1.37,1.71-7.36-2-5.28-1.43.79-2,5.07-1.86,8.1q-1.37-2.37-2.86-4.64c-5.44-11.6-.08-26.27-9-24.85-10.55,1.68-7.55,10.38-5,13.63a41.41,41.41,0,0,0,11.72,10c1,1.69,4.81,9.16,5.29,10.14-4.2-5.2-12.65-15.46-16.08-9.84-3,5,11.77,8.84,16.88,11.51,1.39,2.95,4.48,10.54,4.77,11.33-1.91-2.16-3.5-5.42-6.06-6.92-2.28-1.33-7.65-2.44-7.7.94-.07,4.81,6.87,5.43,10.28,6.3,2.46.63,3.46,1.74,4.15,1.53q2,5.81,3.52,11.78c-2.6-4.78-10.27-15-14-9.53-4.85,7.09,9.47,7.29,14.29,10.6a121.56,121.56,0,0,1,2.3,12.35l0,.14c-1.67-3.79-3-7.64-6.32-10.54-3.05-2.64-8.56-4-8.62,2.25,0,4.54,7.92,5.41,11.56,7.62,1.61,1,2.79,2.26,3.63,2.79a114.3,114.3,0,0,1,.63,11.69C107,422.75,102.22,406.64,96.53,414c-5,6.45,10.29,7.9,16.83,15.75,0,3.56-.17,7.13-.41,10.71a40.57,40.57,0,0,0-3.52-8.26c-1-2-6.54-7.89-9.15-3.52s5.43,8,7.84,9.39a11.69,11.69,0,0,1,4.64,4.91c-.05.66-.78,8.81-1,12.24-1.57-5.92-15-27.81-20.56-15.91-3.57,7.63,13,9.53,16.67,12.26,2.51,1.86,3.37,3.48,3.79,5.18q-.18,3-.21,6c-3.15-5.54-11-16.22-15.23-8.26-5,9.41,8.35,7,10.83,8.44,2.16,1.24,4.59,2,4.51,5.07a60.1,60.1,0,0,0,.79,7c.3,1.64,2.91,1.08,2.73-.57a94.7,94.7,0,0,1-.5-9.66c3.82-2.23,12.25-2.2,14.82-4.27C133,457.51,131.79,453.56,127.11,453.37Z"/><path class="cls-30" d="M61.65,478s4.78-14.14,15.85-9.59c0,0,5.53-17.9,19.12-3.9s9.41-16.06,22.94-13.36,9.51,13,9.51,13S142,457.48,139.16,469c0,0,30.41-15.17,30.91-2.34,0,0,20.38-3.77,16.86,6.79,0,0,11.82-3,11.82,4.53Z"/></g><g id="plant_3" data-name="plant 3"><path class="cls-31" d="M462,465.72s-.78-27.18-10.34-29.19-10.93,17,0,35.68Z"/><path class="cls-32" d="M457,469a.17.17,0,0,1-.16-.12c-4.56-18.34-6.52-25.08-6.54-25.15a.18.18,0,0,1,.11-.2.17.17,0,0,1,.2.11c0,.07,2,6.82,6.55,25.16a.18.18,0,0,1-.12.2Z"/><path class="cls-33" d="M465.28,472.21s14.57-13.82,9.11-20.52-19.12,4.91-22.76,20.52Z"/><path class="cls-32" d="M459.59,470.36h-.06a.17.17,0,0,1-.09-.21c3.62-8.19,10.67-14.7,10.74-14.77a.16.16,0,0,1,.23,0,.15.15,0,0,1,0,.22c-.07.07-7.07,6.54-10.66,14.67A.15.15,0,0,1,459.59,470.36Z"/><path class="cls-34" d="M453,472.21s-3.71-15.72-11.22-14.38,0,14.27,0,14.27Z"/><path class="cls-32" d="M445.59,470.25a.16.16,0,0,1-.15-.12L442.93,461a.16.16,0,0,1,.12-.19.15.15,0,0,1,.2.11l2.5,9.14a.17.17,0,0,1-.11.2Z"/></g><g id="plant_3-2" data-name="plant 3"><path class="cls-35" d="M637.2,463s.63-21.78,8.29-23.39,8.75,13.58,0,28.59Z"/><path class="cls-32" d="M641.16,465.63a.12.12,0,0,0,.12-.1c3.65-14.69,5.23-20.09,5.24-20.14a.13.13,0,1,0-.25-.07c0,.05-1.59,5.46-5.24,20.15a.13.13,0,0,0,.1.16Z"/><path class="cls-36" d="M634.54,468.22s-11.67-11.08-7.29-16.44,15.32,3.93,18.24,16.44Z"/><path class="cls-32" d="M639.1,466.74h0a.13.13,0,0,0,.07-.17,40.85,40.85,0,0,0-8.6-11.83.13.13,0,1,0-.18.18A40.67,40.67,0,0,1,639,466.66.14.14,0,0,0,639.1,466.74Z"/><path class="cls-37" d="M644.42,468.22s3-12.6,9-11.53,0,11.44,0,11.44Z"/><path class="cls-32" d="M650.32,466.65a.13.13,0,0,0,.12-.1l2-7.32a.13.13,0,0,0-.09-.16.14.14,0,0,0-.16.09l-2,7.33a.13.13,0,0,0,.09.15Z"/></g></g><g id="lady"><g id="SHOES"><path class="cls-15" d="M218.67,347.36s10.16,5.73,13.22,6.43,4.41,2.44,4.5,3.95-.22,2.19-.48,2.29-29.76,1.19-30.07-.26,1.62-12,1.62-12Z"/><path class="cls-38" d="M218.67,347.36s-4.87.81-4.86,1.67-6.35-1.25-6.35-1.25l-.72-9.72,12.49.4Z"/><path class="cls-39" d="M205.84,359.77c.31,1.45,29.81.37,30.07.26s.57-.79.48-2.29-1.44-3.24-4.5-3.95a8.64,8.64,0,0,1-1.27-.41h0c-.86.55-2.2,5.51-2.2,5.51-2.19.13-18.8-.2-22.59-.28A4.63,4.63,0,0,0,205.84,359.77Z"/><path class="cls-40" d="M161.65,332.29l-1.06,9.38-3.61,9.5a1.5,1.5,0,0,0,.81,1.92c4.12,1.77,16.62,7,20.35,7.54a44.38,44.38,0,0,0,8.53.14,1.76,1.76,0,0,0,1.63-1.85c-.13-2.18-.85-5.75-4.18-6.66-4.88-1.33-12-8.86-12-8.86l2.14-7.45Z"/><path class="cls-38" d="M172.15,343.4s-4.21-.09-5.06.7-6.5-2.43-6.5-2.43l1.06-9.38L174.29,336Z"/><path class="cls-39" d="M157.79,353.09c4.12,1.77,16.62,7,20.35,7.54a44.38,44.38,0,0,0,8.53.14,1.76,1.76,0,0,0,1.63-1.85c-.13-2.18-.85-5.75-4.18-6.66-.28-.08-.56-.18-.85-.29h0c-5.16.83-5.48,6.43-5.48,6.43-4.46-.95-16.93-6.2-20.6-7.77l-.2.54A1.5,1.5,0,0,0,157.79,353.09Z"/></g><g id="PANTS"><path class="cls-40" d="M220.91,158.58s6.56,38.76,5.38,73.5-6.62,107.3-6.62,107.3-10.34.65-13.62-.95c0,0-6.2-49.45-4.78-64.61S203,257.16,203,255.48s-2.66-26.86-2.66-26.86-5.76,28.1-8.33,40S174.29,336,174.29,336s-10-.47-12.64-3.66c0,0,3.43-51.64,7-64.29s5.2-19.38,5-25.05-3.67-41.71.82-60.74,8.6-26.09,8.6-26.09Z"/><path class="cls-15" d="M205.88,195.56l-5.59,33.06S203,253.79,203,255.48s-.26,3.19-1.68,18.34c-.14,1.48-.21,3.28-.21,5.32l.07,4.68v0s2.47-18.21,4.75-27.18S205.88,195.56,205.88,195.56Z"/></g><g id="body-2" data-name="body"><path class="cls-40" d="M212.58,44.38s5.29-1.4,5.79,2.65S217,59.34,221.51,60.91s10.41,3.55,7.93,9-10.08,8.51-6.2,13.72,7.19,5.2,1.49,11.48-47.48,5.8-47.48,5.8-7.88-3.32-9.86-9.68-6-10.82-.08-13S178,76.61,178.46,67.93s.56-19.31,6.85-23.78,20.5-9.84,23.56-6.95A14,14,0,0,1,212.58,44.38Z"/><path class="cls-15" d="M220.27,75c1.07-5.87-.5-7.93-2.89-14.05a42.84,42.84,0,0,1-2.62-12.53s-12.21,18.23-18.89,19.06-9.07-3.61-9.07-3.61-3.63,3.2-4.7,10.38-19.09.64-17.4,10c.67,2,1.86,4.29,2.69,7a22.09,22.09,0,0,0,7.08,10.15s44.56,0,50.26-6.27c5.54-6.1,2.58-6.27-1.16-11h0A9.29,9.29,0,0,1,220.27,75Z"/><path class="cls-16" d="M326.36,181.65c-3.17-6.72-12-12.28-19.43-12.28a22.1,22.1,0,0,0-14.08,4.92,3.71,3.71,0,0,1-6-2.11L280.39,142a8.16,8.16,0,0,0-9.7-6.26L165.4,158.35a8,8,0,0,0-6.12,9.48L181.92,273a8.28,8.28,0,0,0,5.59,6.15l-1.39.39h4.12a8,8,0,0,0,1.52-.18l2.29-.49h0l27-5.82a5.1,5.1,0,0,0,2.78-8.33,21.89,21.89,0,1,1,36.68-5.8,3.49,3.49,0,0,0,1,4.1l-1.58.77h3.65a3.55,3.55,0,0,0,.85-.08l32.26-6.94a8.18,8.18,0,0,0,6.27-9.71l-6.47-30a3.82,3.82,0,0,1,4.69-4.51,21.92,21.92,0,0,0,25.13-30.85Z"/><path class="cls-41" d="M255.08,136.83c-3.12-5.12-7.42-12.14-12.35-20.08-10.12-16.28-14.37-20.92-14.37-20.92-1.54-1.48-15-4-15-4L196,91.07s-5.2-.62-13-.86c-5.64-.17-8.9,2.11-13.17,6.1,4.78-3.83,7.9,24.07,7.9,24.07s1.94,12.78,3.46,23.07L183,145c5.46,4.75,12.34,11.16,12.34,11.16l-3.72,4.75,1,.31c3.64,1.06,27.74-2.13,28.33-2.6s3.84-23.05,4.43-24.94,4-6.91,4-6.91l15.69,22.78,15.27-4S258.36,142.2,255.08,136.83Z"/><path class="cls-42" d="M204.88,132.72c-1.14-.91-9.88-1.61-14.74-2.73s-7-16.38-7-16.38l-5.39,6.77s1.94,12.78,3.46,23.07L183,145c5.46,4.75,12.34,11.16,12.34,11.16l-3.72,4.75,1,.31a26,26,0,0,0,6.26.08c-.69-3.76-2.94-16.15-3.54-19.74C194.59,137.28,206,133.63,204.88,132.72Z"/><path class="cls-42" d="M229.36,126.73s2-4.25,1.87-7a64.29,64.29,0,0,0-1.55-8.43s6.74,16.18,8.36,19.35,22.28,14.77,22.28,14.77l-15.27,4Z"/><path class="cls-43" d="M303.21,169.37a22.1,22.1,0,0,0-14.08,4.92,3.7,3.7,0,0,1-5.95-2.11L276.67,142a8.16,8.16,0,0,0-9.7-6.26L161.68,158.35a8,8,0,0,0-6.12,9.48L178.2,273a8.28,8.28,0,0,0,9.84,6.35L217.35,273a5.11,5.11,0,0,0,2.79-8.33,21.66,21.66,0,0,1-5-10.28,21.9,21.9,0,1,1,41.66,4.48,3.5,3.5,0,0,0,3.95,4.79L293,256.76a8.18,8.18,0,0,0,6.27-9.71l-6.47-30a3.83,3.83,0,0,1,4.7-4.51,21.92,21.92,0,0,0,25.12-30.85C319.47,174.93,310.64,169.37,303.21,169.37Z"/><path class="cls-42" d="M192.14,98.87c6.11,3.9,13.91,3.45,13.91,3.45-.27-5.18-1.06-8.15-4.19-11L196,91.07s-5.2-.62-13-.86a16.25,16.25,0,0,0-3.59.28C184.87,89.41,186.12,95,192.14,98.87Z"/><path class="cls-44" d="M203.59,174.79c4.11,1.08,5.82.52,6.17-.4,0,0,2.56.49,3.15.13s1.48-1.06,1.89-1,1.26-.75,1.5-1.13-17.94-11.29-30.9-19.17L167.82,157c4.8,2.77,14.66,8.32,18.72,9.67C192,168.52,199.47,173.71,203.59,174.79Z"/><path class="cls-41" d="M183,145l-1.73-1.51c-5.34-4.62-12.12-10.42-12.12-10.42l8.66-12.65s-3.12-27.9-7.9-24.07c-.27.24-.54.5-.81.75-5.3,5.52-17.21,27.33-18.46,30.31s-.92,7.55.64,12.58l.17.56c1.72,5.26,37,24.37,37,24.37l3.16-4,3.72-4.75S188.42,149.71,183,145Z"/><g id="FACE"><path class="cls-38" d="M214.76,48.46c-13.44-14.81-24.68,15.48-24.68,15.48-3.19-2.42-6.5,2.86-3.74,5.84s5.29,1.7,5.29,1.7a23.36,23.36,0,0,0,4.51,5.23V91.07s3.06,11.73,10.58,11.23,5.53-10.49,5.53-10.49c-1.08-.45-2.2-8.24-2.67-11.83a12.43,12.43,0,0,0,2.92-1.34C218.67,74.79,214.76,48.46,214.76,48.46Z"/><path class="cls-45" d="M209.58,80a14,14,0,0,1-9.79-.94S202.9,82.76,210,82.8Z"/><path class="cls-40" d="M190.08,63.94s1.88,4.68,2.48,4.68.61-5.51.61-5.51,7.16-.22,8.65-7.32,4.75-8.82,8.15-7c0,0,2.48-2.48,4.79-.33a10.42,10.42,0,0,0-9.28-6.1C198.46,42.07,186.63,55.9,190.08,63.94Z"/></g><path class="cls-38" d="M195.3,156.12l2.68,1.94s4.47-.05,5.68.42,4.52,2.39,5.76,2.63,2.23.54,1.72,1.38-5,.17-5,.17,3.81,3.1,4.38,3.47,5.7,2.19,6,2.7,0,1.41,0,1.78c0,0,.27,1.82-.54,2.16a3.87,3.87,0,0,1-2.06,0s-.3,1-.91.94-3.23-.7-3.23-.7.23,1.38-.88,1.21-6.57-1.92-7.42-2.19-4.88-3.81-5.49-4.49-7.07-3.23-7.07-3.23Z"/><path class="cls-44" d="M276.59,170.93a2.65,2.65,0,0,0,2.1,2c1.81.35,5.26,1.25,6.42.94l2.21-.6a3.82,3.82,0,0,1-.43-1.1l-1-4.66-12.33.88S273.62,170.12,276.59,170.93Z"/><path class="cls-38" d="M284.62,161.63s-2.49,1.2-3.77,1.06-5.36-.92-6-.52-1.28,1.23-.5,2c0,0-1.72,0-1.72.6a2.76,2.76,0,0,0,1.55,2.33,1.18,1.18,0,0,0-.64,1.38c.17,1.08,3.24,1.38,3.24,1.38a1,1,0,0,0-.65,1c.11.81,1.32,1,2.13,1.18a53.72,53.72,0,0,0,5.93.54,6.44,6.44,0,0,0,3.37-2.23c.1-.43-.45-1.07-.42-1.56s.22-2-.22-2.26.17-1.74-.17-2.09-.38-2.51-.72-2.72-1.58-.85-1.58-.85Z"/></g></g></g></g></g></svg>
